G04 EAGLE Gerber RS-274X export*
G75*
%MOMM*%
%FSLAX34Y34*%
%LPD*%
%INSilkscreen Top*%
%IPPOS*%
%AMOC8*
5,1,8,0,0,1.08239X$1,22.5*%
G01*
%ADD10C,0.152400*%
%ADD11C,0.127000*%
%ADD12C,0.203200*%
%ADD13C,0.101600*%
%ADD14C,0.200000*%
%ADD15R,1.676400X0.965200*%
%ADD16C,0.304800*%


D10*
X238760Y571500D02*
X238760Y579120D01*
X219710Y579120D01*
X218440Y580390D01*
X215900Y582930D01*
X213360Y580390D01*
X212090Y579120D01*
X218440Y618490D02*
X218440Y619760D01*
X238760Y619760D01*
X218440Y618490D02*
X213360Y618490D01*
X213360Y619760D01*
X193040Y619760D01*
X193040Y579120D02*
X212090Y579120D01*
X193040Y579120D02*
X193040Y571500D01*
X238760Y579120D02*
X238760Y612140D01*
X238760Y614680D02*
X238760Y619760D01*
X238760Y614680D02*
X234950Y614680D01*
X193040Y614680D02*
X193040Y619760D01*
X193040Y614680D02*
X196850Y614680D01*
X193040Y612140D02*
X193040Y579120D01*
X196850Y612140D02*
X196850Y614680D01*
X196850Y609600D02*
X209550Y609600D01*
X222250Y612140D02*
X222250Y614680D01*
X234950Y614680D02*
X234950Y612140D01*
X234950Y609600D02*
X222250Y609600D01*
X222250Y614680D02*
X209550Y614680D01*
X222250Y612140D02*
X222250Y609600D01*
X209550Y612140D02*
X209550Y614680D01*
X209550Y612140D02*
X209550Y609600D01*
X209550Y612140D02*
X213360Y612140D01*
X213360Y580390D01*
X218440Y612140D02*
X222250Y612140D01*
X218440Y612140D02*
X213360Y612140D01*
X218440Y612140D02*
X218440Y580390D01*
X196850Y612140D02*
X193040Y612140D01*
X196850Y612140D02*
X196850Y609600D01*
X193040Y612140D02*
X193040Y614680D01*
X234950Y612140D02*
X238760Y612140D01*
X234950Y612140D02*
X234950Y609600D01*
X238760Y612140D02*
X238760Y614680D01*
X238760Y571500D02*
X231140Y571500D01*
X231140Y570230D01*
X226060Y570230D02*
X226060Y571500D01*
X226060Y570230D02*
X231140Y570230D01*
X205740Y570230D02*
X205740Y571500D01*
X200660Y571500D02*
X193040Y571500D01*
X200660Y571500D02*
X200660Y570230D01*
X205740Y570230D01*
X213360Y571500D02*
X213360Y572770D01*
X213360Y571500D02*
X205740Y571500D01*
X213360Y572770D02*
X218440Y572770D01*
X218440Y571500D01*
X226060Y571500D01*
D11*
X226074Y582069D02*
X224155Y584468D01*
X232791Y584468D01*
X232791Y582069D02*
X232791Y586867D01*
X193421Y566801D02*
X190246Y564261D01*
X193421Y566801D02*
X193421Y555371D01*
X190246Y555371D02*
X196596Y555371D01*
X208027Y563944D02*
X208025Y564048D01*
X208019Y564153D01*
X208010Y564257D01*
X207997Y564360D01*
X207979Y564463D01*
X207959Y564565D01*
X207934Y564667D01*
X207906Y564767D01*
X207874Y564867D01*
X207838Y564965D01*
X207799Y565062D01*
X207757Y565157D01*
X207711Y565251D01*
X207661Y565343D01*
X207609Y565433D01*
X207553Y565521D01*
X207493Y565607D01*
X207431Y565691D01*
X207366Y565772D01*
X207298Y565851D01*
X207226Y565928D01*
X207153Y566001D01*
X207076Y566073D01*
X206997Y566141D01*
X206916Y566206D01*
X206832Y566268D01*
X206746Y566328D01*
X206658Y566384D01*
X206568Y566436D01*
X206476Y566486D01*
X206382Y566532D01*
X206287Y566574D01*
X206190Y566613D01*
X206092Y566649D01*
X205992Y566681D01*
X205892Y566709D01*
X205790Y566734D01*
X205688Y566754D01*
X205585Y566772D01*
X205482Y566785D01*
X205378Y566794D01*
X205273Y566800D01*
X205169Y566802D01*
X205169Y566801D02*
X205051Y566799D01*
X204932Y566793D01*
X204814Y566784D01*
X204697Y566771D01*
X204580Y566753D01*
X204463Y566733D01*
X204347Y566708D01*
X204232Y566680D01*
X204119Y566647D01*
X204006Y566612D01*
X203894Y566572D01*
X203784Y566530D01*
X203675Y566483D01*
X203567Y566433D01*
X203462Y566380D01*
X203358Y566323D01*
X203256Y566263D01*
X203156Y566200D01*
X203058Y566133D01*
X202962Y566064D01*
X202869Y565991D01*
X202778Y565915D01*
X202689Y565837D01*
X202603Y565755D01*
X202520Y565671D01*
X202439Y565585D01*
X202362Y565495D01*
X202287Y565404D01*
X202215Y565310D01*
X202146Y565213D01*
X202081Y565115D01*
X202018Y565014D01*
X201959Y564911D01*
X201903Y564807D01*
X201851Y564701D01*
X201802Y564593D01*
X201757Y564484D01*
X201715Y564373D01*
X201677Y564261D01*
X207074Y561722D02*
X207150Y561797D01*
X207225Y561876D01*
X207296Y561957D01*
X207365Y562041D01*
X207430Y562127D01*
X207492Y562215D01*
X207552Y562305D01*
X207608Y562397D01*
X207661Y562492D01*
X207710Y562588D01*
X207756Y562686D01*
X207799Y562785D01*
X207838Y562886D01*
X207873Y562988D01*
X207905Y563091D01*
X207933Y563195D01*
X207958Y563300D01*
X207979Y563407D01*
X207996Y563513D01*
X208009Y563620D01*
X208018Y563728D01*
X208024Y563836D01*
X208026Y563944D01*
X207074Y561721D02*
X201676Y555371D01*
X208026Y555371D01*
X216281Y555371D02*
X212471Y566801D01*
X220091Y566801D02*
X216281Y555371D01*
X225425Y555371D02*
X225425Y566801D01*
X224155Y555371D02*
X226695Y555371D01*
X226695Y566801D02*
X224155Y566801D01*
X231775Y566801D02*
X231775Y555371D01*
X238125Y555371D02*
X231775Y566801D01*
X238125Y566801D02*
X238125Y555371D01*
D10*
X99060Y571500D02*
X99060Y579120D01*
X80010Y579120D01*
X78740Y580390D01*
X76200Y582930D01*
X73660Y580390D01*
X72390Y579120D01*
X78740Y618490D02*
X78740Y619760D01*
X99060Y619760D01*
X78740Y618490D02*
X73660Y618490D01*
X73660Y619760D01*
X53340Y619760D01*
X53340Y579120D02*
X72390Y579120D01*
X53340Y579120D02*
X53340Y571500D01*
X99060Y579120D02*
X99060Y612140D01*
X99060Y614680D02*
X99060Y619760D01*
X99060Y614680D02*
X95250Y614680D01*
X53340Y614680D02*
X53340Y619760D01*
X53340Y614680D02*
X57150Y614680D01*
X53340Y612140D02*
X53340Y579120D01*
X57150Y612140D02*
X57150Y614680D01*
X57150Y609600D02*
X69850Y609600D01*
X82550Y612140D02*
X82550Y614680D01*
X95250Y614680D02*
X95250Y612140D01*
X95250Y609600D02*
X82550Y609600D01*
X82550Y614680D02*
X69850Y614680D01*
X82550Y612140D02*
X82550Y609600D01*
X69850Y612140D02*
X69850Y614680D01*
X69850Y612140D02*
X69850Y609600D01*
X69850Y612140D02*
X73660Y612140D01*
X73660Y580390D01*
X78740Y612140D02*
X82550Y612140D01*
X78740Y612140D02*
X73660Y612140D01*
X78740Y612140D02*
X78740Y580390D01*
X57150Y612140D02*
X53340Y612140D01*
X57150Y612140D02*
X57150Y609600D01*
X53340Y612140D02*
X53340Y614680D01*
X95250Y612140D02*
X99060Y612140D01*
X95250Y612140D02*
X95250Y609600D01*
X99060Y612140D02*
X99060Y614680D01*
X99060Y571500D02*
X91440Y571500D01*
X91440Y570230D01*
X86360Y570230D02*
X86360Y571500D01*
X86360Y570230D02*
X91440Y570230D01*
X66040Y570230D02*
X66040Y571500D01*
X60960Y571500D02*
X53340Y571500D01*
X60960Y571500D02*
X60960Y570230D01*
X66040Y570230D01*
X73660Y571500D02*
X73660Y572770D01*
X73660Y571500D02*
X66040Y571500D01*
X73660Y572770D02*
X78740Y572770D01*
X78740Y571500D01*
X86360Y571500D01*
D11*
X86374Y582069D02*
X84455Y584468D01*
X93091Y584468D01*
X93091Y582069D02*
X93091Y586867D01*
X38100Y566801D02*
X34925Y564261D01*
X38100Y566801D02*
X38100Y555371D01*
X34925Y555371D02*
X41275Y555371D01*
X52706Y563944D02*
X52704Y564048D01*
X52698Y564153D01*
X52689Y564257D01*
X52676Y564360D01*
X52658Y564463D01*
X52638Y564565D01*
X52613Y564667D01*
X52585Y564767D01*
X52553Y564867D01*
X52517Y564965D01*
X52478Y565062D01*
X52436Y565157D01*
X52390Y565251D01*
X52340Y565343D01*
X52288Y565433D01*
X52232Y565521D01*
X52172Y565607D01*
X52110Y565691D01*
X52045Y565772D01*
X51977Y565851D01*
X51905Y565928D01*
X51832Y566001D01*
X51755Y566073D01*
X51676Y566141D01*
X51595Y566206D01*
X51511Y566268D01*
X51425Y566328D01*
X51337Y566384D01*
X51247Y566436D01*
X51155Y566486D01*
X51061Y566532D01*
X50966Y566574D01*
X50869Y566613D01*
X50771Y566649D01*
X50671Y566681D01*
X50571Y566709D01*
X50469Y566734D01*
X50367Y566754D01*
X50264Y566772D01*
X50161Y566785D01*
X50057Y566794D01*
X49952Y566800D01*
X49848Y566802D01*
X49848Y566801D02*
X49730Y566799D01*
X49611Y566793D01*
X49493Y566784D01*
X49376Y566771D01*
X49259Y566753D01*
X49142Y566733D01*
X49026Y566708D01*
X48911Y566680D01*
X48798Y566647D01*
X48685Y566612D01*
X48573Y566572D01*
X48463Y566530D01*
X48354Y566483D01*
X48246Y566433D01*
X48141Y566380D01*
X48037Y566323D01*
X47935Y566263D01*
X47835Y566200D01*
X47737Y566133D01*
X47641Y566064D01*
X47548Y565991D01*
X47457Y565915D01*
X47368Y565837D01*
X47282Y565755D01*
X47199Y565671D01*
X47118Y565585D01*
X47041Y565495D01*
X46966Y565404D01*
X46894Y565310D01*
X46825Y565213D01*
X46760Y565115D01*
X46697Y565014D01*
X46638Y564911D01*
X46582Y564807D01*
X46530Y564701D01*
X46481Y564593D01*
X46436Y564484D01*
X46394Y564373D01*
X46356Y564261D01*
X51753Y561722D02*
X51829Y561797D01*
X51904Y561876D01*
X51975Y561957D01*
X52044Y562041D01*
X52109Y562127D01*
X52171Y562215D01*
X52231Y562305D01*
X52287Y562397D01*
X52340Y562492D01*
X52389Y562588D01*
X52435Y562686D01*
X52478Y562785D01*
X52517Y562886D01*
X52552Y562988D01*
X52584Y563091D01*
X52612Y563195D01*
X52637Y563300D01*
X52658Y563407D01*
X52675Y563513D01*
X52688Y563620D01*
X52697Y563728D01*
X52703Y563836D01*
X52705Y563944D01*
X51753Y561721D02*
X46355Y555371D01*
X52705Y555371D01*
X60960Y555371D02*
X57150Y566801D01*
X64770Y566801D02*
X60960Y555371D01*
X69215Y558546D02*
X69215Y563626D01*
X69217Y563737D01*
X69223Y563847D01*
X69232Y563958D01*
X69246Y564068D01*
X69263Y564177D01*
X69284Y564286D01*
X69309Y564394D01*
X69338Y564501D01*
X69370Y564607D01*
X69406Y564712D01*
X69446Y564815D01*
X69489Y564917D01*
X69536Y565018D01*
X69587Y565117D01*
X69640Y565214D01*
X69697Y565308D01*
X69758Y565401D01*
X69821Y565492D01*
X69888Y565581D01*
X69958Y565667D01*
X70031Y565750D01*
X70106Y565832D01*
X70184Y565910D01*
X70266Y565985D01*
X70349Y566058D01*
X70435Y566128D01*
X70524Y566195D01*
X70615Y566258D01*
X70708Y566319D01*
X70803Y566376D01*
X70899Y566429D01*
X70998Y566480D01*
X71099Y566527D01*
X71201Y566570D01*
X71304Y566610D01*
X71409Y566646D01*
X71515Y566678D01*
X71622Y566707D01*
X71730Y566732D01*
X71839Y566753D01*
X71948Y566770D01*
X72058Y566784D01*
X72169Y566793D01*
X72279Y566799D01*
X72390Y566801D01*
X72501Y566799D01*
X72611Y566793D01*
X72722Y566784D01*
X72832Y566770D01*
X72941Y566753D01*
X73050Y566732D01*
X73158Y566707D01*
X73265Y566678D01*
X73371Y566646D01*
X73476Y566610D01*
X73579Y566570D01*
X73681Y566527D01*
X73782Y566480D01*
X73881Y566429D01*
X73978Y566376D01*
X74072Y566319D01*
X74165Y566258D01*
X74256Y566195D01*
X74345Y566128D01*
X74431Y566058D01*
X74514Y565985D01*
X74596Y565910D01*
X74674Y565832D01*
X74749Y565750D01*
X74822Y565667D01*
X74892Y565581D01*
X74959Y565492D01*
X75022Y565401D01*
X75083Y565308D01*
X75140Y565214D01*
X75193Y565117D01*
X75244Y565018D01*
X75291Y564917D01*
X75334Y564815D01*
X75374Y564712D01*
X75410Y564607D01*
X75442Y564501D01*
X75471Y564394D01*
X75496Y564286D01*
X75517Y564177D01*
X75534Y564068D01*
X75548Y563958D01*
X75557Y563847D01*
X75563Y563737D01*
X75565Y563626D01*
X75565Y558546D01*
X75563Y558435D01*
X75557Y558325D01*
X75548Y558214D01*
X75534Y558104D01*
X75517Y557995D01*
X75496Y557886D01*
X75471Y557778D01*
X75442Y557671D01*
X75410Y557565D01*
X75374Y557460D01*
X75334Y557357D01*
X75291Y557255D01*
X75244Y557154D01*
X75193Y557055D01*
X75140Y556959D01*
X75083Y556864D01*
X75022Y556771D01*
X74959Y556680D01*
X74892Y556591D01*
X74822Y556505D01*
X74749Y556422D01*
X74674Y556340D01*
X74596Y556262D01*
X74514Y556187D01*
X74431Y556114D01*
X74345Y556044D01*
X74256Y555977D01*
X74165Y555914D01*
X74072Y555853D01*
X73977Y555796D01*
X73881Y555743D01*
X73782Y555692D01*
X73681Y555645D01*
X73579Y555602D01*
X73476Y555562D01*
X73371Y555526D01*
X73265Y555494D01*
X73158Y555465D01*
X73050Y555440D01*
X72941Y555419D01*
X72832Y555402D01*
X72722Y555388D01*
X72611Y555379D01*
X72501Y555373D01*
X72390Y555371D01*
X72279Y555373D01*
X72169Y555379D01*
X72058Y555388D01*
X71948Y555402D01*
X71839Y555419D01*
X71730Y555440D01*
X71622Y555465D01*
X71515Y555494D01*
X71409Y555526D01*
X71304Y555562D01*
X71201Y555602D01*
X71099Y555645D01*
X70998Y555692D01*
X70899Y555743D01*
X70803Y555796D01*
X70708Y555853D01*
X70615Y555914D01*
X70524Y555977D01*
X70435Y556044D01*
X70349Y556114D01*
X70266Y556187D01*
X70184Y556262D01*
X70106Y556340D01*
X70031Y556422D01*
X69958Y556505D01*
X69888Y556591D01*
X69821Y556680D01*
X69758Y556771D01*
X69697Y556864D01*
X69640Y556959D01*
X69587Y557055D01*
X69536Y557154D01*
X69489Y557255D01*
X69446Y557357D01*
X69406Y557460D01*
X69370Y557565D01*
X69338Y557671D01*
X69309Y557778D01*
X69284Y557886D01*
X69263Y557995D01*
X69246Y558104D01*
X69232Y558214D01*
X69223Y558325D01*
X69217Y558435D01*
X69215Y558546D01*
X81026Y558546D02*
X81026Y566801D01*
X81026Y558546D02*
X81028Y558435D01*
X81034Y558325D01*
X81043Y558214D01*
X81057Y558104D01*
X81074Y557995D01*
X81095Y557886D01*
X81120Y557778D01*
X81149Y557671D01*
X81181Y557565D01*
X81217Y557460D01*
X81257Y557357D01*
X81300Y557255D01*
X81347Y557154D01*
X81398Y557055D01*
X81451Y556959D01*
X81508Y556864D01*
X81569Y556771D01*
X81632Y556680D01*
X81699Y556591D01*
X81769Y556505D01*
X81842Y556422D01*
X81917Y556340D01*
X81995Y556262D01*
X82077Y556187D01*
X82160Y556114D01*
X82246Y556044D01*
X82335Y555977D01*
X82426Y555914D01*
X82519Y555853D01*
X82614Y555796D01*
X82710Y555743D01*
X82809Y555692D01*
X82910Y555645D01*
X83012Y555602D01*
X83115Y555562D01*
X83220Y555526D01*
X83326Y555494D01*
X83433Y555465D01*
X83541Y555440D01*
X83650Y555419D01*
X83759Y555402D01*
X83869Y555388D01*
X83980Y555379D01*
X84090Y555373D01*
X84201Y555371D01*
X84312Y555373D01*
X84422Y555379D01*
X84533Y555388D01*
X84643Y555402D01*
X84752Y555419D01*
X84861Y555440D01*
X84969Y555465D01*
X85076Y555494D01*
X85182Y555526D01*
X85287Y555562D01*
X85390Y555602D01*
X85492Y555645D01*
X85593Y555692D01*
X85692Y555743D01*
X85788Y555796D01*
X85883Y555853D01*
X85976Y555914D01*
X86067Y555977D01*
X86156Y556044D01*
X86242Y556114D01*
X86325Y556187D01*
X86407Y556262D01*
X86485Y556340D01*
X86560Y556422D01*
X86633Y556505D01*
X86703Y556591D01*
X86770Y556680D01*
X86833Y556771D01*
X86894Y556864D01*
X86951Y556959D01*
X87004Y557055D01*
X87055Y557154D01*
X87102Y557255D01*
X87145Y557357D01*
X87185Y557460D01*
X87221Y557565D01*
X87253Y557671D01*
X87282Y557778D01*
X87307Y557886D01*
X87328Y557995D01*
X87345Y558104D01*
X87359Y558214D01*
X87368Y558325D01*
X87374Y558435D01*
X87376Y558546D01*
X87376Y566801D01*
X95250Y566801D02*
X95250Y555371D01*
X92075Y566801D02*
X98425Y566801D01*
D10*
X73660Y20320D02*
X73660Y12700D01*
X73660Y20320D02*
X54610Y20320D01*
X53340Y21590D01*
X50800Y24130D01*
X48260Y21590D01*
X46990Y20320D01*
X53340Y59690D02*
X53340Y60960D01*
X73660Y60960D01*
X53340Y59690D02*
X48260Y59690D01*
X48260Y60960D01*
X27940Y60960D01*
X27940Y20320D02*
X46990Y20320D01*
X27940Y20320D02*
X27940Y12700D01*
X73660Y20320D02*
X73660Y53340D01*
X73660Y55880D02*
X73660Y60960D01*
X73660Y55880D02*
X69850Y55880D01*
X27940Y55880D02*
X27940Y60960D01*
X27940Y55880D02*
X31750Y55880D01*
X27940Y53340D02*
X27940Y20320D01*
X31750Y53340D02*
X31750Y55880D01*
X31750Y50800D02*
X44450Y50800D01*
X57150Y53340D02*
X57150Y55880D01*
X69850Y55880D02*
X69850Y53340D01*
X69850Y50800D02*
X57150Y50800D01*
X57150Y55880D02*
X44450Y55880D01*
X57150Y53340D02*
X57150Y50800D01*
X44450Y53340D02*
X44450Y55880D01*
X44450Y53340D02*
X44450Y50800D01*
X44450Y53340D02*
X48260Y53340D01*
X48260Y21590D01*
X53340Y53340D02*
X57150Y53340D01*
X53340Y53340D02*
X48260Y53340D01*
X53340Y53340D02*
X53340Y21590D01*
X31750Y53340D02*
X27940Y53340D01*
X31750Y53340D02*
X31750Y50800D01*
X27940Y53340D02*
X27940Y55880D01*
X69850Y53340D02*
X73660Y53340D01*
X69850Y53340D02*
X69850Y50800D01*
X73660Y53340D02*
X73660Y55880D01*
X73660Y12700D02*
X66040Y12700D01*
X66040Y11430D01*
X60960Y11430D02*
X60960Y12700D01*
X60960Y11430D02*
X66040Y11430D01*
X40640Y11430D02*
X40640Y12700D01*
X35560Y12700D02*
X27940Y12700D01*
X35560Y12700D02*
X35560Y11430D01*
X40640Y11430D01*
X48260Y12700D02*
X48260Y13970D01*
X48260Y12700D02*
X40640Y12700D01*
X48260Y13970D02*
X53340Y13970D01*
X53340Y12700D01*
X60960Y12700D01*
D11*
X60974Y23269D02*
X59055Y25668D01*
X67691Y25668D01*
X67691Y23269D02*
X67691Y28067D01*
X27686Y8001D02*
X25146Y-889D01*
X31496Y-889D01*
X29591Y1651D02*
X29591Y-3429D01*
X36576Y-254D02*
X36578Y-143D01*
X36584Y-33D01*
X36593Y78D01*
X36607Y188D01*
X36624Y297D01*
X36645Y406D01*
X36670Y514D01*
X36699Y621D01*
X36731Y727D01*
X36767Y832D01*
X36807Y935D01*
X36850Y1037D01*
X36897Y1138D01*
X36948Y1237D01*
X37001Y1333D01*
X37058Y1428D01*
X37119Y1521D01*
X37182Y1612D01*
X37249Y1701D01*
X37319Y1787D01*
X37392Y1870D01*
X37467Y1952D01*
X37545Y2030D01*
X37627Y2105D01*
X37710Y2178D01*
X37796Y2248D01*
X37885Y2315D01*
X37976Y2378D01*
X38069Y2439D01*
X38163Y2496D01*
X38260Y2549D01*
X38359Y2600D01*
X38460Y2647D01*
X38562Y2690D01*
X38665Y2730D01*
X38770Y2766D01*
X38876Y2798D01*
X38983Y2827D01*
X39091Y2852D01*
X39200Y2873D01*
X39309Y2890D01*
X39419Y2904D01*
X39530Y2913D01*
X39640Y2919D01*
X39751Y2921D01*
X39862Y2919D01*
X39972Y2913D01*
X40083Y2904D01*
X40193Y2890D01*
X40302Y2873D01*
X40411Y2852D01*
X40519Y2827D01*
X40626Y2798D01*
X40732Y2766D01*
X40837Y2730D01*
X40940Y2690D01*
X41042Y2647D01*
X41143Y2600D01*
X41242Y2549D01*
X41339Y2496D01*
X41433Y2439D01*
X41526Y2378D01*
X41617Y2315D01*
X41706Y2248D01*
X41792Y2178D01*
X41875Y2105D01*
X41957Y2030D01*
X42035Y1952D01*
X42110Y1870D01*
X42183Y1787D01*
X42253Y1701D01*
X42320Y1612D01*
X42383Y1521D01*
X42444Y1428D01*
X42501Y1333D01*
X42554Y1237D01*
X42605Y1138D01*
X42652Y1037D01*
X42695Y935D01*
X42735Y832D01*
X42771Y727D01*
X42803Y621D01*
X42832Y514D01*
X42857Y406D01*
X42878Y297D01*
X42895Y188D01*
X42909Y78D01*
X42918Y-33D01*
X42924Y-143D01*
X42926Y-254D01*
X42924Y-365D01*
X42918Y-475D01*
X42909Y-586D01*
X42895Y-696D01*
X42878Y-805D01*
X42857Y-914D01*
X42832Y-1022D01*
X42803Y-1129D01*
X42771Y-1235D01*
X42735Y-1340D01*
X42695Y-1443D01*
X42652Y-1545D01*
X42605Y-1646D01*
X42554Y-1745D01*
X42501Y-1842D01*
X42444Y-1936D01*
X42383Y-2029D01*
X42320Y-2120D01*
X42253Y-2209D01*
X42183Y-2295D01*
X42110Y-2378D01*
X42035Y-2460D01*
X41957Y-2538D01*
X41875Y-2613D01*
X41792Y-2686D01*
X41706Y-2756D01*
X41617Y-2823D01*
X41526Y-2886D01*
X41433Y-2947D01*
X41338Y-3004D01*
X41242Y-3057D01*
X41143Y-3108D01*
X41042Y-3155D01*
X40940Y-3198D01*
X40837Y-3238D01*
X40732Y-3274D01*
X40626Y-3306D01*
X40519Y-3335D01*
X40411Y-3360D01*
X40302Y-3381D01*
X40193Y-3398D01*
X40083Y-3412D01*
X39972Y-3421D01*
X39862Y-3427D01*
X39751Y-3429D01*
X39640Y-3427D01*
X39530Y-3421D01*
X39419Y-3412D01*
X39309Y-3398D01*
X39200Y-3381D01*
X39091Y-3360D01*
X38983Y-3335D01*
X38876Y-3306D01*
X38770Y-3274D01*
X38665Y-3238D01*
X38562Y-3198D01*
X38460Y-3155D01*
X38359Y-3108D01*
X38260Y-3057D01*
X38164Y-3004D01*
X38069Y-2947D01*
X37976Y-2886D01*
X37885Y-2823D01*
X37796Y-2756D01*
X37710Y-2686D01*
X37627Y-2613D01*
X37545Y-2538D01*
X37467Y-2460D01*
X37392Y-2378D01*
X37319Y-2295D01*
X37249Y-2209D01*
X37182Y-2120D01*
X37119Y-2029D01*
X37058Y-1936D01*
X37001Y-1842D01*
X36948Y-1745D01*
X36897Y-1646D01*
X36850Y-1545D01*
X36807Y-1443D01*
X36767Y-1340D01*
X36731Y-1235D01*
X36699Y-1129D01*
X36670Y-1022D01*
X36645Y-914D01*
X36624Y-805D01*
X36607Y-696D01*
X36593Y-586D01*
X36584Y-475D01*
X36578Y-365D01*
X36576Y-254D01*
X37211Y5461D02*
X37213Y5561D01*
X37219Y5660D01*
X37229Y5760D01*
X37242Y5858D01*
X37260Y5957D01*
X37281Y6054D01*
X37306Y6150D01*
X37335Y6246D01*
X37368Y6340D01*
X37404Y6433D01*
X37444Y6524D01*
X37488Y6614D01*
X37535Y6702D01*
X37585Y6788D01*
X37639Y6872D01*
X37696Y6954D01*
X37756Y7033D01*
X37820Y7111D01*
X37886Y7185D01*
X37955Y7257D01*
X38027Y7326D01*
X38101Y7392D01*
X38179Y7456D01*
X38258Y7516D01*
X38340Y7573D01*
X38424Y7627D01*
X38510Y7677D01*
X38598Y7724D01*
X38688Y7768D01*
X38779Y7808D01*
X38872Y7844D01*
X38966Y7877D01*
X39062Y7906D01*
X39158Y7931D01*
X39255Y7952D01*
X39354Y7970D01*
X39452Y7983D01*
X39552Y7993D01*
X39651Y7999D01*
X39751Y8001D01*
X39851Y7999D01*
X39950Y7993D01*
X40050Y7983D01*
X40148Y7970D01*
X40247Y7952D01*
X40344Y7931D01*
X40440Y7906D01*
X40536Y7877D01*
X40630Y7844D01*
X40723Y7808D01*
X40814Y7768D01*
X40904Y7724D01*
X40992Y7677D01*
X41078Y7627D01*
X41162Y7573D01*
X41244Y7516D01*
X41323Y7456D01*
X41401Y7392D01*
X41475Y7326D01*
X41547Y7257D01*
X41616Y7185D01*
X41682Y7111D01*
X41746Y7033D01*
X41806Y6954D01*
X41863Y6872D01*
X41917Y6788D01*
X41967Y6702D01*
X42014Y6614D01*
X42058Y6524D01*
X42098Y6433D01*
X42134Y6340D01*
X42167Y6246D01*
X42196Y6150D01*
X42221Y6054D01*
X42242Y5957D01*
X42260Y5858D01*
X42273Y5760D01*
X42283Y5660D01*
X42289Y5561D01*
X42291Y5461D01*
X42289Y5361D01*
X42283Y5262D01*
X42273Y5162D01*
X42260Y5064D01*
X42242Y4965D01*
X42221Y4868D01*
X42196Y4772D01*
X42167Y4676D01*
X42134Y4582D01*
X42098Y4489D01*
X42058Y4398D01*
X42014Y4308D01*
X41967Y4220D01*
X41917Y4134D01*
X41863Y4050D01*
X41806Y3968D01*
X41746Y3889D01*
X41682Y3811D01*
X41616Y3737D01*
X41547Y3665D01*
X41475Y3596D01*
X41401Y3530D01*
X41323Y3466D01*
X41244Y3406D01*
X41162Y3349D01*
X41078Y3295D01*
X40992Y3245D01*
X40904Y3198D01*
X40814Y3154D01*
X40723Y3114D01*
X40630Y3078D01*
X40536Y3045D01*
X40440Y3016D01*
X40344Y2991D01*
X40247Y2970D01*
X40148Y2952D01*
X40050Y2939D01*
X39950Y2929D01*
X39851Y2923D01*
X39751Y2921D01*
X39651Y2923D01*
X39552Y2929D01*
X39452Y2939D01*
X39354Y2952D01*
X39255Y2970D01*
X39158Y2991D01*
X39062Y3016D01*
X38966Y3045D01*
X38872Y3078D01*
X38779Y3114D01*
X38688Y3154D01*
X38598Y3198D01*
X38510Y3245D01*
X38424Y3295D01*
X38340Y3349D01*
X38258Y3406D01*
X38179Y3466D01*
X38101Y3530D01*
X38027Y3596D01*
X37955Y3665D01*
X37886Y3737D01*
X37820Y3811D01*
X37756Y3889D01*
X37696Y3968D01*
X37639Y4050D01*
X37585Y4134D01*
X37535Y4220D01*
X37488Y4308D01*
X37444Y4398D01*
X37404Y4489D01*
X37368Y4582D01*
X37335Y4676D01*
X37306Y4772D01*
X37281Y4868D01*
X37260Y4965D01*
X37242Y5064D01*
X37229Y5162D01*
X37219Y5262D01*
X37213Y5361D01*
X37211Y5461D01*
X47371Y8001D02*
X51181Y-3429D01*
X54991Y8001D01*
X60325Y8001D02*
X60325Y-3429D01*
X59055Y-3429D02*
X61595Y-3429D01*
X61595Y8001D02*
X59055Y8001D01*
X66675Y8001D02*
X66675Y-3429D01*
X73025Y-3429D02*
X66675Y8001D01*
X73025Y8001D02*
X73025Y-3429D01*
D10*
X340360Y571500D02*
X340360Y579120D01*
X321310Y579120D01*
X320040Y580390D01*
X317500Y582930D01*
X314960Y580390D01*
X313690Y579120D01*
X320040Y618490D02*
X320040Y619760D01*
X340360Y619760D01*
X320040Y618490D02*
X314960Y618490D01*
X314960Y619760D01*
X294640Y619760D01*
X294640Y579120D02*
X313690Y579120D01*
X294640Y579120D02*
X294640Y571500D01*
X340360Y579120D02*
X340360Y612140D01*
X340360Y614680D02*
X340360Y619760D01*
X340360Y614680D02*
X336550Y614680D01*
X294640Y614680D02*
X294640Y619760D01*
X294640Y614680D02*
X298450Y614680D01*
X294640Y612140D02*
X294640Y579120D01*
X298450Y612140D02*
X298450Y614680D01*
X298450Y609600D02*
X311150Y609600D01*
X323850Y612140D02*
X323850Y614680D01*
X336550Y614680D02*
X336550Y612140D01*
X336550Y609600D02*
X323850Y609600D01*
X323850Y614680D02*
X311150Y614680D01*
X323850Y612140D02*
X323850Y609600D01*
X311150Y612140D02*
X311150Y614680D01*
X311150Y612140D02*
X311150Y609600D01*
X311150Y612140D02*
X314960Y612140D01*
X314960Y580390D01*
X320040Y612140D02*
X323850Y612140D01*
X320040Y612140D02*
X314960Y612140D01*
X320040Y612140D02*
X320040Y580390D01*
X298450Y612140D02*
X294640Y612140D01*
X298450Y612140D02*
X298450Y609600D01*
X294640Y612140D02*
X294640Y614680D01*
X336550Y612140D02*
X340360Y612140D01*
X336550Y612140D02*
X336550Y609600D01*
X340360Y612140D02*
X340360Y614680D01*
X340360Y571500D02*
X332740Y571500D01*
X332740Y570230D01*
X327660Y570230D02*
X327660Y571500D01*
X327660Y570230D02*
X332740Y570230D01*
X307340Y570230D02*
X307340Y571500D01*
X302260Y571500D02*
X294640Y571500D01*
X302260Y571500D02*
X302260Y570230D01*
X307340Y570230D01*
X314960Y571500D02*
X314960Y572770D01*
X314960Y571500D02*
X307340Y571500D01*
X314960Y572770D02*
X320040Y572770D01*
X320040Y571500D01*
X327660Y571500D01*
D11*
X327674Y582069D02*
X325755Y584468D01*
X334391Y584468D01*
X334391Y582069D02*
X334391Y586867D01*
X291465Y555371D02*
X287655Y555371D01*
X291465Y555371D02*
X291565Y555373D01*
X291664Y555379D01*
X291764Y555389D01*
X291862Y555402D01*
X291961Y555420D01*
X292058Y555441D01*
X292154Y555466D01*
X292250Y555495D01*
X292344Y555528D01*
X292437Y555564D01*
X292528Y555604D01*
X292618Y555648D01*
X292706Y555695D01*
X292792Y555745D01*
X292876Y555799D01*
X292958Y555856D01*
X293037Y555916D01*
X293115Y555980D01*
X293189Y556046D01*
X293261Y556115D01*
X293330Y556187D01*
X293396Y556261D01*
X293460Y556339D01*
X293520Y556418D01*
X293577Y556500D01*
X293631Y556584D01*
X293681Y556670D01*
X293728Y556758D01*
X293772Y556848D01*
X293812Y556939D01*
X293848Y557032D01*
X293881Y557126D01*
X293910Y557222D01*
X293935Y557318D01*
X293956Y557415D01*
X293974Y557514D01*
X293987Y557612D01*
X293997Y557712D01*
X294003Y557811D01*
X294005Y557911D01*
X294005Y559181D01*
X294003Y559281D01*
X293997Y559380D01*
X293987Y559480D01*
X293974Y559578D01*
X293956Y559677D01*
X293935Y559774D01*
X293910Y559870D01*
X293881Y559966D01*
X293848Y560060D01*
X293812Y560153D01*
X293772Y560244D01*
X293728Y560334D01*
X293681Y560422D01*
X293631Y560508D01*
X293577Y560592D01*
X293520Y560674D01*
X293460Y560753D01*
X293396Y560831D01*
X293330Y560905D01*
X293261Y560977D01*
X293189Y561046D01*
X293115Y561112D01*
X293037Y561176D01*
X292958Y561236D01*
X292876Y561293D01*
X292792Y561347D01*
X292706Y561397D01*
X292618Y561444D01*
X292528Y561488D01*
X292437Y561528D01*
X292344Y561564D01*
X292250Y561597D01*
X292154Y561626D01*
X292058Y561651D01*
X291961Y561672D01*
X291862Y561690D01*
X291764Y561703D01*
X291664Y561713D01*
X291565Y561719D01*
X291465Y561721D01*
X287655Y561721D01*
X287655Y566801D01*
X294005Y566801D01*
X298450Y566801D02*
X302260Y555371D01*
X306070Y566801D01*
X310515Y563626D02*
X310515Y558546D01*
X310515Y563626D02*
X310517Y563737D01*
X310523Y563847D01*
X310532Y563958D01*
X310546Y564068D01*
X310563Y564177D01*
X310584Y564286D01*
X310609Y564394D01*
X310638Y564501D01*
X310670Y564607D01*
X310706Y564712D01*
X310746Y564815D01*
X310789Y564917D01*
X310836Y565018D01*
X310887Y565117D01*
X310940Y565214D01*
X310997Y565308D01*
X311058Y565401D01*
X311121Y565492D01*
X311188Y565581D01*
X311258Y565667D01*
X311331Y565750D01*
X311406Y565832D01*
X311484Y565910D01*
X311566Y565985D01*
X311649Y566058D01*
X311735Y566128D01*
X311824Y566195D01*
X311915Y566258D01*
X312008Y566319D01*
X312103Y566376D01*
X312199Y566429D01*
X312298Y566480D01*
X312399Y566527D01*
X312501Y566570D01*
X312604Y566610D01*
X312709Y566646D01*
X312815Y566678D01*
X312922Y566707D01*
X313030Y566732D01*
X313139Y566753D01*
X313248Y566770D01*
X313358Y566784D01*
X313469Y566793D01*
X313579Y566799D01*
X313690Y566801D01*
X313801Y566799D01*
X313911Y566793D01*
X314022Y566784D01*
X314132Y566770D01*
X314241Y566753D01*
X314350Y566732D01*
X314458Y566707D01*
X314565Y566678D01*
X314671Y566646D01*
X314776Y566610D01*
X314879Y566570D01*
X314981Y566527D01*
X315082Y566480D01*
X315181Y566429D01*
X315278Y566376D01*
X315372Y566319D01*
X315465Y566258D01*
X315556Y566195D01*
X315645Y566128D01*
X315731Y566058D01*
X315814Y565985D01*
X315896Y565910D01*
X315974Y565832D01*
X316049Y565750D01*
X316122Y565667D01*
X316192Y565581D01*
X316259Y565492D01*
X316322Y565401D01*
X316383Y565308D01*
X316440Y565214D01*
X316493Y565117D01*
X316544Y565018D01*
X316591Y564917D01*
X316634Y564815D01*
X316674Y564712D01*
X316710Y564607D01*
X316742Y564501D01*
X316771Y564394D01*
X316796Y564286D01*
X316817Y564177D01*
X316834Y564068D01*
X316848Y563958D01*
X316857Y563847D01*
X316863Y563737D01*
X316865Y563626D01*
X316865Y558546D01*
X316863Y558435D01*
X316857Y558325D01*
X316848Y558214D01*
X316834Y558104D01*
X316817Y557995D01*
X316796Y557886D01*
X316771Y557778D01*
X316742Y557671D01*
X316710Y557565D01*
X316674Y557460D01*
X316634Y557357D01*
X316591Y557255D01*
X316544Y557154D01*
X316493Y557055D01*
X316440Y556959D01*
X316383Y556864D01*
X316322Y556771D01*
X316259Y556680D01*
X316192Y556591D01*
X316122Y556505D01*
X316049Y556422D01*
X315974Y556340D01*
X315896Y556262D01*
X315814Y556187D01*
X315731Y556114D01*
X315645Y556044D01*
X315556Y555977D01*
X315465Y555914D01*
X315372Y555853D01*
X315277Y555796D01*
X315181Y555743D01*
X315082Y555692D01*
X314981Y555645D01*
X314879Y555602D01*
X314776Y555562D01*
X314671Y555526D01*
X314565Y555494D01*
X314458Y555465D01*
X314350Y555440D01*
X314241Y555419D01*
X314132Y555402D01*
X314022Y555388D01*
X313911Y555379D01*
X313801Y555373D01*
X313690Y555371D01*
X313579Y555373D01*
X313469Y555379D01*
X313358Y555388D01*
X313248Y555402D01*
X313139Y555419D01*
X313030Y555440D01*
X312922Y555465D01*
X312815Y555494D01*
X312709Y555526D01*
X312604Y555562D01*
X312501Y555602D01*
X312399Y555645D01*
X312298Y555692D01*
X312199Y555743D01*
X312103Y555796D01*
X312008Y555853D01*
X311915Y555914D01*
X311824Y555977D01*
X311735Y556044D01*
X311649Y556114D01*
X311566Y556187D01*
X311484Y556262D01*
X311406Y556340D01*
X311331Y556422D01*
X311258Y556505D01*
X311188Y556591D01*
X311121Y556680D01*
X311058Y556771D01*
X310997Y556864D01*
X310940Y556959D01*
X310887Y557055D01*
X310836Y557154D01*
X310789Y557255D01*
X310746Y557357D01*
X310706Y557460D01*
X310670Y557565D01*
X310638Y557671D01*
X310609Y557778D01*
X310584Y557886D01*
X310563Y557995D01*
X310546Y558104D01*
X310532Y558214D01*
X310523Y558325D01*
X310517Y558435D01*
X310515Y558546D01*
X322326Y558546D02*
X322326Y566801D01*
X322326Y558546D02*
X322328Y558435D01*
X322334Y558325D01*
X322343Y558214D01*
X322357Y558104D01*
X322374Y557995D01*
X322395Y557886D01*
X322420Y557778D01*
X322449Y557671D01*
X322481Y557565D01*
X322517Y557460D01*
X322557Y557357D01*
X322600Y557255D01*
X322647Y557154D01*
X322698Y557055D01*
X322751Y556959D01*
X322808Y556864D01*
X322869Y556771D01*
X322932Y556680D01*
X322999Y556591D01*
X323069Y556505D01*
X323142Y556422D01*
X323217Y556340D01*
X323295Y556262D01*
X323377Y556187D01*
X323460Y556114D01*
X323546Y556044D01*
X323635Y555977D01*
X323726Y555914D01*
X323819Y555853D01*
X323914Y555796D01*
X324010Y555743D01*
X324109Y555692D01*
X324210Y555645D01*
X324312Y555602D01*
X324415Y555562D01*
X324520Y555526D01*
X324626Y555494D01*
X324733Y555465D01*
X324841Y555440D01*
X324950Y555419D01*
X325059Y555402D01*
X325169Y555388D01*
X325280Y555379D01*
X325390Y555373D01*
X325501Y555371D01*
X325612Y555373D01*
X325722Y555379D01*
X325833Y555388D01*
X325943Y555402D01*
X326052Y555419D01*
X326161Y555440D01*
X326269Y555465D01*
X326376Y555494D01*
X326482Y555526D01*
X326587Y555562D01*
X326690Y555602D01*
X326792Y555645D01*
X326893Y555692D01*
X326992Y555743D01*
X327088Y555796D01*
X327183Y555853D01*
X327276Y555914D01*
X327367Y555977D01*
X327456Y556044D01*
X327542Y556114D01*
X327625Y556187D01*
X327707Y556262D01*
X327785Y556340D01*
X327860Y556422D01*
X327933Y556505D01*
X328003Y556591D01*
X328070Y556680D01*
X328133Y556771D01*
X328194Y556864D01*
X328251Y556959D01*
X328304Y557055D01*
X328355Y557154D01*
X328402Y557255D01*
X328445Y557357D01*
X328485Y557460D01*
X328521Y557565D01*
X328553Y557671D01*
X328582Y557778D01*
X328607Y557886D01*
X328628Y557995D01*
X328645Y558104D01*
X328659Y558214D01*
X328668Y558325D01*
X328674Y558435D01*
X328676Y558546D01*
X328676Y566801D01*
X336550Y566801D02*
X336550Y555371D01*
X333375Y566801D02*
X339725Y566801D01*
D12*
X315200Y326300D02*
X232700Y326300D01*
X218200Y340800D02*
X218200Y353800D01*
X218200Y382800D02*
X218200Y395800D01*
X232700Y410300D02*
X315200Y410300D01*
X315200Y382800D01*
X315200Y353800D02*
X315200Y326300D01*
X232700Y326300D02*
X218200Y340800D01*
X218200Y395800D02*
X232700Y410300D01*
X230200Y354300D02*
X230551Y353416D01*
X230924Y352541D01*
X231318Y351675D01*
X231733Y350819D01*
X232169Y349973D01*
X232625Y349139D01*
X233101Y348315D01*
X233598Y347504D01*
X234113Y346704D01*
X234648Y345918D01*
X235203Y345145D01*
X235775Y344385D01*
X236366Y343640D01*
X236975Y342909D01*
X237602Y342193D01*
X238246Y341493D01*
X238907Y340808D01*
X239584Y340140D01*
X240277Y339489D01*
X240986Y338855D01*
X241710Y338238D01*
X242449Y337638D01*
X243202Y337057D01*
X243969Y336495D01*
X244750Y335951D01*
X245543Y335427D01*
X246349Y334922D01*
X247168Y334436D01*
X247997Y333971D01*
X248838Y333526D01*
X249689Y333102D01*
X250551Y332698D01*
X251422Y332316D01*
X252302Y331955D01*
X253191Y331615D01*
X254087Y331298D01*
X254991Y331002D01*
X255902Y330728D01*
X256820Y330476D01*
X257743Y330247D01*
X258672Y330040D01*
X259605Y329856D01*
X260542Y329695D01*
X261483Y329557D01*
X262428Y329441D01*
X263374Y329349D01*
X264323Y329279D01*
X265273Y329233D01*
X266224Y329210D01*
X267176Y329210D01*
X268127Y329233D01*
X269077Y329279D01*
X270026Y329349D01*
X270972Y329441D01*
X271917Y329557D01*
X272858Y329695D01*
X273795Y329856D01*
X274728Y330040D01*
X275657Y330247D01*
X276580Y330476D01*
X277498Y330728D01*
X278409Y331002D01*
X279313Y331298D01*
X280209Y331615D01*
X281098Y331955D01*
X281978Y332316D01*
X282849Y332698D01*
X283711Y333102D01*
X284562Y333526D01*
X285403Y333971D01*
X286232Y334436D01*
X287051Y334922D01*
X287857Y335427D01*
X288650Y335951D01*
X289431Y336495D01*
X290198Y337057D01*
X290951Y337638D01*
X291690Y338238D01*
X292414Y338855D01*
X293123Y339489D01*
X293816Y340140D01*
X294493Y340808D01*
X295154Y341493D01*
X295798Y342193D01*
X296425Y342909D01*
X297034Y343640D01*
X297625Y344385D01*
X298197Y345145D01*
X298752Y345918D01*
X299287Y346704D01*
X299802Y347504D01*
X300299Y348315D01*
X300775Y349139D01*
X301231Y349973D01*
X301667Y350819D01*
X302082Y351675D01*
X302476Y352541D01*
X302849Y353416D01*
X303200Y354300D01*
X303200Y382300D02*
X302849Y383184D01*
X302476Y384059D01*
X302082Y384925D01*
X301667Y385781D01*
X301231Y386627D01*
X300775Y387461D01*
X300299Y388285D01*
X299802Y389096D01*
X299287Y389896D01*
X298752Y390682D01*
X298197Y391455D01*
X297625Y392215D01*
X297034Y392960D01*
X296425Y393691D01*
X295798Y394407D01*
X295154Y395107D01*
X294493Y395792D01*
X293816Y396460D01*
X293123Y397111D01*
X292414Y397745D01*
X291690Y398362D01*
X290951Y398962D01*
X290198Y399543D01*
X289431Y400105D01*
X288650Y400649D01*
X287857Y401173D01*
X287051Y401678D01*
X286232Y402164D01*
X285403Y402629D01*
X284562Y403074D01*
X283711Y403498D01*
X282849Y403902D01*
X281978Y404284D01*
X281098Y404645D01*
X280209Y404985D01*
X279313Y405302D01*
X278409Y405598D01*
X277498Y405872D01*
X276580Y406124D01*
X275657Y406353D01*
X274728Y406560D01*
X273795Y406744D01*
X272858Y406905D01*
X271917Y407043D01*
X270972Y407159D01*
X270026Y407251D01*
X269077Y407321D01*
X268127Y407367D01*
X267176Y407390D01*
X266224Y407390D01*
X265273Y407367D01*
X264323Y407321D01*
X263374Y407251D01*
X262428Y407159D01*
X261483Y407043D01*
X260542Y406905D01*
X259605Y406744D01*
X258672Y406560D01*
X257743Y406353D01*
X256820Y406124D01*
X255902Y405872D01*
X254991Y405598D01*
X254087Y405302D01*
X253191Y404985D01*
X252302Y404645D01*
X251422Y404284D01*
X250551Y403902D01*
X249689Y403498D01*
X248838Y403074D01*
X247997Y402629D01*
X247168Y402164D01*
X246349Y401678D01*
X245543Y401173D01*
X244750Y400649D01*
X243969Y400105D01*
X243202Y399543D01*
X242449Y398962D01*
X241710Y398362D01*
X240986Y397745D01*
X240277Y397111D01*
X239584Y396460D01*
X238907Y395792D01*
X238246Y395107D01*
X237602Y394407D01*
X236975Y393691D01*
X236366Y392960D01*
X235775Y392215D01*
X235203Y391455D01*
X234648Y390682D01*
X234113Y389896D01*
X233598Y389096D01*
X233101Y388285D01*
X232625Y387461D01*
X232169Y386627D01*
X231733Y385781D01*
X231318Y384925D01*
X230924Y384059D01*
X230551Y383184D01*
X230200Y382300D01*
D13*
X332692Y365286D02*
X332692Y362689D01*
X332690Y362590D01*
X332684Y362490D01*
X332675Y362391D01*
X332662Y362293D01*
X332645Y362195D01*
X332624Y362097D01*
X332599Y362001D01*
X332571Y361906D01*
X332539Y361812D01*
X332504Y361719D01*
X332465Y361627D01*
X332422Y361537D01*
X332377Y361449D01*
X332327Y361362D01*
X332275Y361278D01*
X332219Y361195D01*
X332161Y361115D01*
X332099Y361037D01*
X332034Y360962D01*
X331966Y360889D01*
X331896Y360819D01*
X331823Y360751D01*
X331748Y360686D01*
X331670Y360624D01*
X331590Y360566D01*
X331507Y360510D01*
X331423Y360458D01*
X331336Y360408D01*
X331248Y360363D01*
X331158Y360320D01*
X331066Y360281D01*
X330973Y360246D01*
X330879Y360214D01*
X330784Y360186D01*
X330688Y360161D01*
X330590Y360140D01*
X330492Y360123D01*
X330394Y360110D01*
X330295Y360101D01*
X330195Y360095D01*
X330096Y360093D01*
X323604Y360093D01*
X323604Y360092D02*
X323505Y360094D01*
X323405Y360100D01*
X323306Y360109D01*
X323208Y360122D01*
X323110Y360140D01*
X323012Y360160D01*
X322916Y360185D01*
X322820Y360213D01*
X322726Y360245D01*
X322633Y360280D01*
X322542Y360319D01*
X322452Y360362D01*
X322363Y360407D01*
X322277Y360457D01*
X322192Y360509D01*
X322110Y360565D01*
X322030Y360624D01*
X321952Y360685D01*
X321876Y360750D01*
X321803Y360818D01*
X321733Y360888D01*
X321665Y360961D01*
X321600Y361037D01*
X321539Y361115D01*
X321480Y361195D01*
X321424Y361277D01*
X321372Y361362D01*
X321323Y361448D01*
X321277Y361537D01*
X321234Y361627D01*
X321195Y361718D01*
X321160Y361811D01*
X321128Y361905D01*
X321100Y362001D01*
X321075Y362097D01*
X321055Y362195D01*
X321037Y362293D01*
X321024Y362391D01*
X321015Y362490D01*
X321009Y362589D01*
X321007Y362689D01*
X321008Y362689D02*
X321008Y365286D01*
X321008Y370611D02*
X332692Y370611D01*
X332692Y371909D02*
X332692Y369312D01*
X321008Y369312D02*
X321008Y371909D01*
X321008Y376890D02*
X332692Y376890D01*
X332692Y383381D02*
X321008Y376890D01*
X321008Y383381D02*
X332692Y383381D01*
X323604Y388701D02*
X321008Y391946D01*
X332692Y391946D01*
X332692Y388701D02*
X332692Y395192D01*
D12*
X112000Y72300D02*
X29500Y72300D01*
X15000Y86800D02*
X15000Y99800D01*
X15000Y128800D02*
X15000Y141800D01*
X29500Y156300D02*
X112000Y156300D01*
X112000Y128800D01*
X112000Y99800D02*
X112000Y72300D01*
X29500Y72300D02*
X15000Y86800D01*
X15000Y141800D02*
X29500Y156300D01*
X27000Y100300D02*
X27351Y99416D01*
X27724Y98541D01*
X28118Y97675D01*
X28533Y96819D01*
X28969Y95973D01*
X29425Y95139D01*
X29901Y94315D01*
X30398Y93504D01*
X30913Y92704D01*
X31448Y91918D01*
X32003Y91145D01*
X32575Y90385D01*
X33166Y89640D01*
X33775Y88909D01*
X34402Y88193D01*
X35046Y87493D01*
X35707Y86808D01*
X36384Y86140D01*
X37077Y85489D01*
X37786Y84855D01*
X38510Y84238D01*
X39249Y83638D01*
X40002Y83057D01*
X40769Y82495D01*
X41550Y81951D01*
X42343Y81427D01*
X43149Y80922D01*
X43968Y80436D01*
X44797Y79971D01*
X45638Y79526D01*
X46489Y79102D01*
X47351Y78698D01*
X48222Y78316D01*
X49102Y77955D01*
X49991Y77615D01*
X50887Y77298D01*
X51791Y77002D01*
X52702Y76728D01*
X53620Y76476D01*
X54543Y76247D01*
X55472Y76040D01*
X56405Y75856D01*
X57342Y75695D01*
X58283Y75557D01*
X59228Y75441D01*
X60174Y75349D01*
X61123Y75279D01*
X62073Y75233D01*
X63024Y75210D01*
X63976Y75210D01*
X64927Y75233D01*
X65877Y75279D01*
X66826Y75349D01*
X67772Y75441D01*
X68717Y75557D01*
X69658Y75695D01*
X70595Y75856D01*
X71528Y76040D01*
X72457Y76247D01*
X73380Y76476D01*
X74298Y76728D01*
X75209Y77002D01*
X76113Y77298D01*
X77009Y77615D01*
X77898Y77955D01*
X78778Y78316D01*
X79649Y78698D01*
X80511Y79102D01*
X81362Y79526D01*
X82203Y79971D01*
X83032Y80436D01*
X83851Y80922D01*
X84657Y81427D01*
X85450Y81951D01*
X86231Y82495D01*
X86998Y83057D01*
X87751Y83638D01*
X88490Y84238D01*
X89214Y84855D01*
X89923Y85489D01*
X90616Y86140D01*
X91293Y86808D01*
X91954Y87493D01*
X92598Y88193D01*
X93225Y88909D01*
X93834Y89640D01*
X94425Y90385D01*
X94997Y91145D01*
X95552Y91918D01*
X96087Y92704D01*
X96602Y93504D01*
X97099Y94315D01*
X97575Y95139D01*
X98031Y95973D01*
X98467Y96819D01*
X98882Y97675D01*
X99276Y98541D01*
X99649Y99416D01*
X100000Y100300D01*
X100000Y128300D02*
X99649Y129184D01*
X99276Y130059D01*
X98882Y130925D01*
X98467Y131781D01*
X98031Y132627D01*
X97575Y133461D01*
X97099Y134285D01*
X96602Y135096D01*
X96087Y135896D01*
X95552Y136682D01*
X94997Y137455D01*
X94425Y138215D01*
X93834Y138960D01*
X93225Y139691D01*
X92598Y140407D01*
X91954Y141107D01*
X91293Y141792D01*
X90616Y142460D01*
X89923Y143111D01*
X89214Y143745D01*
X88490Y144362D01*
X87751Y144962D01*
X86998Y145543D01*
X86231Y146105D01*
X85450Y146649D01*
X84657Y147173D01*
X83851Y147678D01*
X83032Y148164D01*
X82203Y148629D01*
X81362Y149074D01*
X80511Y149498D01*
X79649Y149902D01*
X78778Y150284D01*
X77898Y150645D01*
X77009Y150985D01*
X76113Y151302D01*
X75209Y151598D01*
X74298Y151872D01*
X73380Y152124D01*
X72457Y152353D01*
X71528Y152560D01*
X70595Y152744D01*
X69658Y152905D01*
X68717Y153043D01*
X67772Y153159D01*
X66826Y153251D01*
X65877Y153321D01*
X64927Y153367D01*
X63976Y153390D01*
X63024Y153390D01*
X62073Y153367D01*
X61123Y153321D01*
X60174Y153251D01*
X59228Y153159D01*
X58283Y153043D01*
X57342Y152905D01*
X56405Y152744D01*
X55472Y152560D01*
X54543Y152353D01*
X53620Y152124D01*
X52702Y151872D01*
X51791Y151598D01*
X50887Y151302D01*
X49991Y150985D01*
X49102Y150645D01*
X48222Y150284D01*
X47351Y149902D01*
X46489Y149498D01*
X45638Y149074D01*
X44797Y148629D01*
X43968Y148164D01*
X43149Y147678D01*
X42343Y147173D01*
X41550Y146649D01*
X40769Y146105D01*
X40002Y145543D01*
X39249Y144962D01*
X38510Y144362D01*
X37786Y143745D01*
X37077Y143111D01*
X36384Y142460D01*
X35707Y141792D01*
X35046Y141107D01*
X34402Y140407D01*
X33775Y139691D01*
X33166Y138960D01*
X32575Y138215D01*
X32003Y137455D01*
X31448Y136682D01*
X30913Y135896D01*
X30398Y135096D01*
X29901Y134285D01*
X29425Y133461D01*
X28969Y132627D01*
X28533Y131781D01*
X28118Y130925D01*
X27724Y130059D01*
X27351Y129184D01*
X27000Y128300D01*
D13*
X129492Y99856D02*
X129492Y97259D01*
X129490Y97160D01*
X129484Y97060D01*
X129475Y96961D01*
X129462Y96863D01*
X129445Y96765D01*
X129424Y96667D01*
X129399Y96571D01*
X129371Y96476D01*
X129339Y96382D01*
X129304Y96289D01*
X129265Y96197D01*
X129222Y96107D01*
X129177Y96019D01*
X129127Y95932D01*
X129075Y95848D01*
X129019Y95765D01*
X128961Y95685D01*
X128899Y95607D01*
X128834Y95532D01*
X128766Y95459D01*
X128696Y95389D01*
X128623Y95321D01*
X128548Y95256D01*
X128470Y95194D01*
X128390Y95136D01*
X128307Y95080D01*
X128223Y95028D01*
X128136Y94978D01*
X128048Y94933D01*
X127958Y94890D01*
X127866Y94851D01*
X127773Y94816D01*
X127679Y94784D01*
X127584Y94756D01*
X127488Y94731D01*
X127390Y94710D01*
X127292Y94693D01*
X127194Y94680D01*
X127095Y94671D01*
X126995Y94665D01*
X126896Y94663D01*
X120404Y94663D01*
X120404Y94662D02*
X120305Y94664D01*
X120205Y94670D01*
X120106Y94679D01*
X120008Y94692D01*
X119910Y94710D01*
X119812Y94730D01*
X119716Y94755D01*
X119620Y94783D01*
X119526Y94815D01*
X119433Y94850D01*
X119342Y94889D01*
X119252Y94932D01*
X119163Y94977D01*
X119077Y95027D01*
X118992Y95079D01*
X118910Y95135D01*
X118830Y95194D01*
X118752Y95255D01*
X118676Y95320D01*
X118603Y95388D01*
X118533Y95458D01*
X118465Y95531D01*
X118400Y95607D01*
X118339Y95685D01*
X118280Y95765D01*
X118224Y95847D01*
X118172Y95932D01*
X118123Y96018D01*
X118077Y96107D01*
X118034Y96197D01*
X117995Y96288D01*
X117960Y96381D01*
X117928Y96475D01*
X117900Y96571D01*
X117875Y96667D01*
X117855Y96765D01*
X117837Y96863D01*
X117824Y96961D01*
X117815Y97060D01*
X117809Y97159D01*
X117807Y97259D01*
X117808Y97259D02*
X117808Y99856D01*
X117808Y105181D02*
X129492Y105181D01*
X129492Y106479D02*
X129492Y103882D01*
X117808Y103882D02*
X117808Y106479D01*
X117808Y111460D02*
X129492Y111460D01*
X129492Y117951D02*
X117808Y111460D01*
X117808Y117951D02*
X129492Y117951D01*
X126896Y123271D02*
X117808Y125867D01*
X126896Y123271D02*
X126896Y129762D01*
X124299Y127815D02*
X129492Y127815D01*
X126246Y134700D02*
X126133Y134702D01*
X126020Y134708D01*
X125907Y134718D01*
X125794Y134732D01*
X125682Y134749D01*
X125571Y134771D01*
X125461Y134796D01*
X125351Y134826D01*
X125243Y134859D01*
X125136Y134896D01*
X125030Y134936D01*
X124926Y134981D01*
X124823Y135029D01*
X124722Y135080D01*
X124623Y135135D01*
X124526Y135193D01*
X124431Y135255D01*
X124338Y135320D01*
X124248Y135388D01*
X124160Y135459D01*
X124074Y135534D01*
X123991Y135611D01*
X123911Y135691D01*
X123834Y135774D01*
X123759Y135860D01*
X123688Y135948D01*
X123620Y136038D01*
X123555Y136131D01*
X123493Y136226D01*
X123435Y136323D01*
X123380Y136422D01*
X123329Y136523D01*
X123281Y136626D01*
X123236Y136730D01*
X123196Y136836D01*
X123159Y136943D01*
X123126Y137051D01*
X123096Y137161D01*
X123071Y137271D01*
X123049Y137382D01*
X123032Y137494D01*
X123018Y137607D01*
X123008Y137720D01*
X123002Y137833D01*
X123000Y137946D01*
X123002Y138059D01*
X123008Y138172D01*
X123018Y138285D01*
X123032Y138398D01*
X123049Y138510D01*
X123071Y138621D01*
X123096Y138731D01*
X123126Y138841D01*
X123159Y138949D01*
X123196Y139056D01*
X123236Y139162D01*
X123281Y139266D01*
X123329Y139369D01*
X123380Y139470D01*
X123435Y139569D01*
X123493Y139666D01*
X123555Y139761D01*
X123620Y139854D01*
X123688Y139944D01*
X123759Y140032D01*
X123834Y140118D01*
X123911Y140201D01*
X123991Y140281D01*
X124074Y140358D01*
X124160Y140433D01*
X124248Y140504D01*
X124338Y140572D01*
X124431Y140637D01*
X124526Y140699D01*
X124623Y140757D01*
X124722Y140812D01*
X124823Y140863D01*
X124926Y140911D01*
X125030Y140956D01*
X125136Y140996D01*
X125243Y141033D01*
X125351Y141066D01*
X125461Y141096D01*
X125571Y141121D01*
X125682Y141143D01*
X125794Y141160D01*
X125907Y141174D01*
X126020Y141184D01*
X126133Y141190D01*
X126246Y141192D01*
X126359Y141190D01*
X126472Y141184D01*
X126585Y141174D01*
X126698Y141160D01*
X126810Y141143D01*
X126921Y141121D01*
X127031Y141096D01*
X127141Y141066D01*
X127249Y141033D01*
X127356Y140996D01*
X127462Y140956D01*
X127566Y140911D01*
X127669Y140863D01*
X127770Y140812D01*
X127869Y140757D01*
X127966Y140699D01*
X128061Y140637D01*
X128154Y140572D01*
X128244Y140504D01*
X128332Y140433D01*
X128418Y140358D01*
X128501Y140281D01*
X128581Y140201D01*
X128658Y140118D01*
X128733Y140032D01*
X128804Y139944D01*
X128872Y139854D01*
X128937Y139761D01*
X128999Y139666D01*
X129057Y139569D01*
X129112Y139470D01*
X129163Y139369D01*
X129211Y139266D01*
X129256Y139162D01*
X129296Y139056D01*
X129333Y138949D01*
X129366Y138841D01*
X129396Y138731D01*
X129421Y138621D01*
X129443Y138510D01*
X129460Y138398D01*
X129474Y138285D01*
X129484Y138172D01*
X129490Y138059D01*
X129492Y137946D01*
X129490Y137833D01*
X129484Y137720D01*
X129474Y137607D01*
X129460Y137494D01*
X129443Y137382D01*
X129421Y137271D01*
X129396Y137161D01*
X129366Y137051D01*
X129333Y136943D01*
X129296Y136836D01*
X129256Y136730D01*
X129211Y136626D01*
X129163Y136523D01*
X129112Y136422D01*
X129057Y136323D01*
X128999Y136226D01*
X128937Y136131D01*
X128872Y136038D01*
X128804Y135948D01*
X128733Y135860D01*
X128658Y135774D01*
X128581Y135691D01*
X128501Y135611D01*
X128418Y135534D01*
X128332Y135459D01*
X128244Y135388D01*
X128154Y135320D01*
X128061Y135255D01*
X127966Y135193D01*
X127869Y135135D01*
X127770Y135080D01*
X127669Y135029D01*
X127566Y134981D01*
X127462Y134936D01*
X127356Y134896D01*
X127249Y134859D01*
X127141Y134826D01*
X127031Y134796D01*
X126921Y134771D01*
X126810Y134749D01*
X126698Y134732D01*
X126585Y134718D01*
X126472Y134708D01*
X126359Y134702D01*
X126246Y134700D01*
X120404Y135350D02*
X120303Y135352D01*
X120203Y135358D01*
X120103Y135368D01*
X120003Y135381D01*
X119904Y135399D01*
X119805Y135420D01*
X119708Y135445D01*
X119611Y135474D01*
X119516Y135507D01*
X119422Y135543D01*
X119330Y135583D01*
X119239Y135626D01*
X119150Y135673D01*
X119063Y135723D01*
X118977Y135777D01*
X118894Y135834D01*
X118814Y135894D01*
X118735Y135957D01*
X118659Y136024D01*
X118586Y136093D01*
X118516Y136165D01*
X118448Y136239D01*
X118383Y136316D01*
X118322Y136396D01*
X118263Y136478D01*
X118208Y136562D01*
X118156Y136648D01*
X118107Y136736D01*
X118062Y136826D01*
X118020Y136918D01*
X117982Y137011D01*
X117948Y137106D01*
X117917Y137201D01*
X117890Y137298D01*
X117867Y137396D01*
X117847Y137495D01*
X117832Y137595D01*
X117820Y137695D01*
X117812Y137795D01*
X117808Y137896D01*
X117808Y137996D01*
X117812Y138097D01*
X117820Y138197D01*
X117832Y138297D01*
X117847Y138397D01*
X117867Y138496D01*
X117890Y138594D01*
X117917Y138691D01*
X117948Y138786D01*
X117982Y138881D01*
X118020Y138974D01*
X118062Y139066D01*
X118107Y139156D01*
X118156Y139244D01*
X118208Y139330D01*
X118263Y139414D01*
X118322Y139496D01*
X118383Y139576D01*
X118448Y139653D01*
X118516Y139727D01*
X118586Y139799D01*
X118659Y139868D01*
X118735Y139935D01*
X118814Y139998D01*
X118894Y140058D01*
X118977Y140115D01*
X119063Y140169D01*
X119150Y140219D01*
X119239Y140266D01*
X119330Y140309D01*
X119422Y140349D01*
X119516Y140385D01*
X119611Y140418D01*
X119708Y140447D01*
X119805Y140472D01*
X119904Y140493D01*
X120003Y140511D01*
X120103Y140524D01*
X120203Y140534D01*
X120303Y140540D01*
X120404Y140542D01*
X120505Y140540D01*
X120605Y140534D01*
X120705Y140524D01*
X120805Y140511D01*
X120904Y140493D01*
X121003Y140472D01*
X121100Y140447D01*
X121197Y140418D01*
X121292Y140385D01*
X121386Y140349D01*
X121478Y140309D01*
X121569Y140266D01*
X121658Y140219D01*
X121745Y140169D01*
X121831Y140115D01*
X121914Y140058D01*
X121994Y139998D01*
X122073Y139935D01*
X122149Y139868D01*
X122222Y139799D01*
X122292Y139727D01*
X122360Y139653D01*
X122425Y139576D01*
X122486Y139496D01*
X122545Y139414D01*
X122600Y139330D01*
X122652Y139244D01*
X122701Y139156D01*
X122746Y139066D01*
X122788Y138974D01*
X122826Y138881D01*
X122860Y138786D01*
X122891Y138691D01*
X122918Y138594D01*
X122941Y138496D01*
X122961Y138397D01*
X122976Y138297D01*
X122988Y138197D01*
X122996Y138097D01*
X123000Y137996D01*
X123000Y137896D01*
X122996Y137795D01*
X122988Y137695D01*
X122976Y137595D01*
X122961Y137495D01*
X122941Y137396D01*
X122918Y137298D01*
X122891Y137201D01*
X122860Y137106D01*
X122826Y137011D01*
X122788Y136918D01*
X122746Y136826D01*
X122701Y136736D01*
X122652Y136648D01*
X122600Y136562D01*
X122545Y136478D01*
X122486Y136396D01*
X122425Y136316D01*
X122360Y136239D01*
X122292Y136165D01*
X122222Y136093D01*
X122149Y136024D01*
X122073Y135957D01*
X121994Y135894D01*
X121914Y135834D01*
X121831Y135777D01*
X121745Y135723D01*
X121658Y135673D01*
X121569Y135626D01*
X121478Y135583D01*
X121386Y135543D01*
X121292Y135507D01*
X121197Y135474D01*
X121100Y135445D01*
X121003Y135420D01*
X120904Y135399D01*
X120805Y135381D01*
X120705Y135368D01*
X120605Y135358D01*
X120505Y135352D01*
X120404Y135350D01*
D12*
X288200Y421400D02*
X288200Y503900D01*
X302700Y518400D02*
X315700Y518400D01*
X344700Y518400D02*
X357700Y518400D01*
X372200Y503900D02*
X372200Y421400D01*
X344700Y421400D01*
X315700Y421400D02*
X288200Y421400D01*
X288200Y503900D02*
X302700Y518400D01*
X357700Y518400D02*
X372200Y503900D01*
X316200Y506400D02*
X315316Y506049D01*
X314441Y505676D01*
X313575Y505282D01*
X312719Y504867D01*
X311873Y504431D01*
X311039Y503975D01*
X310215Y503499D01*
X309404Y503002D01*
X308604Y502487D01*
X307818Y501952D01*
X307045Y501397D01*
X306285Y500825D01*
X305540Y500234D01*
X304809Y499625D01*
X304093Y498998D01*
X303393Y498354D01*
X302708Y497693D01*
X302040Y497016D01*
X301389Y496323D01*
X300755Y495614D01*
X300138Y494890D01*
X299538Y494151D01*
X298957Y493398D01*
X298395Y492631D01*
X297851Y491850D01*
X297327Y491057D01*
X296822Y490251D01*
X296336Y489432D01*
X295871Y488603D01*
X295426Y487762D01*
X295002Y486911D01*
X294598Y486049D01*
X294216Y485178D01*
X293855Y484298D01*
X293515Y483409D01*
X293198Y482513D01*
X292902Y481609D01*
X292628Y480698D01*
X292376Y479780D01*
X292147Y478857D01*
X291940Y477928D01*
X291756Y476995D01*
X291595Y476058D01*
X291457Y475117D01*
X291341Y474172D01*
X291249Y473226D01*
X291179Y472277D01*
X291133Y471327D01*
X291110Y470376D01*
X291110Y469424D01*
X291133Y468473D01*
X291179Y467523D01*
X291249Y466574D01*
X291341Y465628D01*
X291457Y464683D01*
X291595Y463742D01*
X291756Y462805D01*
X291940Y461872D01*
X292147Y460943D01*
X292376Y460020D01*
X292628Y459102D01*
X292902Y458191D01*
X293198Y457287D01*
X293515Y456391D01*
X293855Y455502D01*
X294216Y454622D01*
X294598Y453751D01*
X295002Y452889D01*
X295426Y452038D01*
X295871Y451197D01*
X296336Y450368D01*
X296822Y449549D01*
X297327Y448743D01*
X297851Y447950D01*
X298395Y447169D01*
X298957Y446402D01*
X299538Y445649D01*
X300138Y444910D01*
X300755Y444186D01*
X301389Y443477D01*
X302040Y442784D01*
X302708Y442107D01*
X303393Y441446D01*
X304093Y440802D01*
X304809Y440175D01*
X305540Y439566D01*
X306285Y438975D01*
X307045Y438403D01*
X307818Y437848D01*
X308604Y437313D01*
X309404Y436798D01*
X310215Y436301D01*
X311039Y435825D01*
X311873Y435369D01*
X312719Y434933D01*
X313575Y434518D01*
X314441Y434124D01*
X315316Y433751D01*
X316200Y433400D01*
X344200Y433400D02*
X345084Y433751D01*
X345959Y434124D01*
X346825Y434518D01*
X347681Y434933D01*
X348527Y435369D01*
X349361Y435825D01*
X350185Y436301D01*
X350996Y436798D01*
X351796Y437313D01*
X352582Y437848D01*
X353355Y438403D01*
X354115Y438975D01*
X354860Y439566D01*
X355591Y440175D01*
X356307Y440802D01*
X357007Y441446D01*
X357692Y442107D01*
X358360Y442784D01*
X359011Y443477D01*
X359645Y444186D01*
X360262Y444910D01*
X360862Y445649D01*
X361443Y446402D01*
X362005Y447169D01*
X362549Y447950D01*
X363073Y448743D01*
X363578Y449549D01*
X364064Y450368D01*
X364529Y451197D01*
X364974Y452038D01*
X365398Y452889D01*
X365802Y453751D01*
X366184Y454622D01*
X366545Y455502D01*
X366885Y456391D01*
X367202Y457287D01*
X367498Y458191D01*
X367772Y459102D01*
X368024Y460020D01*
X368253Y460943D01*
X368460Y461872D01*
X368644Y462805D01*
X368805Y463742D01*
X368943Y464683D01*
X369059Y465628D01*
X369151Y466574D01*
X369221Y467523D01*
X369267Y468473D01*
X369290Y469424D01*
X369290Y470376D01*
X369267Y471327D01*
X369221Y472277D01*
X369151Y473226D01*
X369059Y474172D01*
X368943Y475117D01*
X368805Y476058D01*
X368644Y476995D01*
X368460Y477928D01*
X368253Y478857D01*
X368024Y479780D01*
X367772Y480698D01*
X367498Y481609D01*
X367202Y482513D01*
X366885Y483409D01*
X366545Y484298D01*
X366184Y485178D01*
X365802Y486049D01*
X365398Y486911D01*
X364974Y487762D01*
X364529Y488603D01*
X364064Y489432D01*
X363578Y490251D01*
X363073Y491057D01*
X362549Y491850D01*
X362005Y492631D01*
X361443Y493398D01*
X360862Y494151D01*
X360262Y494890D01*
X359645Y495614D01*
X359011Y496323D01*
X358360Y497016D01*
X357692Y497693D01*
X357007Y498354D01*
X356307Y498998D01*
X355591Y499625D01*
X354860Y500234D01*
X354115Y500825D01*
X353355Y501397D01*
X352582Y501952D01*
X351796Y502487D01*
X350996Y503002D01*
X350185Y503499D01*
X349361Y503975D01*
X348527Y504431D01*
X347681Y504867D01*
X346825Y505282D01*
X345959Y505676D01*
X345084Y506049D01*
X344200Y506400D01*
D13*
X312708Y403908D02*
X310111Y403908D01*
X310012Y403910D01*
X309912Y403916D01*
X309813Y403925D01*
X309715Y403938D01*
X309617Y403955D01*
X309519Y403976D01*
X309423Y404001D01*
X309328Y404029D01*
X309234Y404061D01*
X309141Y404096D01*
X309049Y404135D01*
X308959Y404178D01*
X308871Y404223D01*
X308784Y404273D01*
X308700Y404325D01*
X308617Y404381D01*
X308537Y404439D01*
X308459Y404501D01*
X308384Y404566D01*
X308311Y404634D01*
X308241Y404704D01*
X308173Y404777D01*
X308108Y404852D01*
X308046Y404930D01*
X307988Y405010D01*
X307932Y405093D01*
X307880Y405177D01*
X307830Y405264D01*
X307785Y405352D01*
X307742Y405442D01*
X307703Y405534D01*
X307668Y405627D01*
X307636Y405721D01*
X307608Y405816D01*
X307583Y405912D01*
X307562Y406010D01*
X307545Y406108D01*
X307532Y406206D01*
X307523Y406305D01*
X307517Y406405D01*
X307515Y406504D01*
X307515Y412996D01*
X307517Y413095D01*
X307523Y413195D01*
X307532Y413294D01*
X307545Y413392D01*
X307562Y413490D01*
X307583Y413588D01*
X307608Y413684D01*
X307636Y413779D01*
X307668Y413873D01*
X307703Y413966D01*
X307742Y414058D01*
X307785Y414148D01*
X307830Y414236D01*
X307880Y414323D01*
X307932Y414407D01*
X307988Y414490D01*
X308046Y414570D01*
X308108Y414648D01*
X308173Y414723D01*
X308241Y414796D01*
X308311Y414866D01*
X308384Y414934D01*
X308459Y414999D01*
X308537Y415061D01*
X308617Y415119D01*
X308700Y415175D01*
X308784Y415227D01*
X308871Y415277D01*
X308959Y415322D01*
X309049Y415365D01*
X309141Y415404D01*
X309233Y415439D01*
X309328Y415471D01*
X309423Y415499D01*
X309519Y415524D01*
X309617Y415545D01*
X309715Y415562D01*
X309813Y415575D01*
X309912Y415584D01*
X310012Y415590D01*
X310111Y415592D01*
X312708Y415592D01*
X317073Y412346D02*
X317073Y407154D01*
X317073Y412346D02*
X317075Y412459D01*
X317081Y412572D01*
X317091Y412685D01*
X317105Y412798D01*
X317122Y412910D01*
X317144Y413021D01*
X317169Y413131D01*
X317199Y413241D01*
X317232Y413349D01*
X317269Y413456D01*
X317309Y413562D01*
X317354Y413666D01*
X317402Y413769D01*
X317453Y413870D01*
X317508Y413969D01*
X317566Y414066D01*
X317628Y414161D01*
X317693Y414254D01*
X317761Y414344D01*
X317832Y414432D01*
X317907Y414518D01*
X317984Y414601D01*
X318064Y414681D01*
X318147Y414758D01*
X318233Y414833D01*
X318321Y414904D01*
X318411Y414972D01*
X318504Y415037D01*
X318599Y415099D01*
X318696Y415157D01*
X318795Y415212D01*
X318896Y415263D01*
X318999Y415311D01*
X319103Y415356D01*
X319209Y415396D01*
X319316Y415433D01*
X319424Y415466D01*
X319534Y415496D01*
X319644Y415521D01*
X319755Y415543D01*
X319867Y415560D01*
X319980Y415574D01*
X320093Y415584D01*
X320206Y415590D01*
X320319Y415592D01*
X320432Y415590D01*
X320545Y415584D01*
X320658Y415574D01*
X320771Y415560D01*
X320883Y415543D01*
X320994Y415521D01*
X321104Y415496D01*
X321214Y415466D01*
X321322Y415433D01*
X321429Y415396D01*
X321535Y415356D01*
X321639Y415311D01*
X321742Y415263D01*
X321843Y415212D01*
X321942Y415157D01*
X322039Y415099D01*
X322134Y415037D01*
X322227Y414972D01*
X322317Y414904D01*
X322405Y414833D01*
X322491Y414758D01*
X322574Y414681D01*
X322654Y414601D01*
X322731Y414518D01*
X322806Y414432D01*
X322877Y414344D01*
X322945Y414254D01*
X323010Y414161D01*
X323072Y414066D01*
X323130Y413969D01*
X323185Y413870D01*
X323236Y413769D01*
X323284Y413666D01*
X323329Y413562D01*
X323369Y413456D01*
X323406Y413349D01*
X323439Y413241D01*
X323469Y413131D01*
X323494Y413021D01*
X323516Y412910D01*
X323533Y412798D01*
X323547Y412685D01*
X323557Y412572D01*
X323563Y412459D01*
X323565Y412346D01*
X323564Y412346D02*
X323564Y407154D01*
X323565Y407154D02*
X323563Y407041D01*
X323557Y406928D01*
X323547Y406815D01*
X323533Y406702D01*
X323516Y406590D01*
X323494Y406479D01*
X323469Y406369D01*
X323439Y406259D01*
X323406Y406151D01*
X323369Y406044D01*
X323329Y405938D01*
X323284Y405834D01*
X323236Y405731D01*
X323185Y405630D01*
X323130Y405531D01*
X323072Y405434D01*
X323010Y405339D01*
X322945Y405246D01*
X322877Y405156D01*
X322806Y405068D01*
X322731Y404982D01*
X322654Y404899D01*
X322574Y404819D01*
X322491Y404742D01*
X322405Y404667D01*
X322317Y404596D01*
X322227Y404528D01*
X322134Y404463D01*
X322039Y404401D01*
X321942Y404343D01*
X321843Y404288D01*
X321742Y404237D01*
X321639Y404189D01*
X321535Y404144D01*
X321429Y404104D01*
X321322Y404067D01*
X321214Y404034D01*
X321104Y404004D01*
X320994Y403979D01*
X320883Y403957D01*
X320771Y403940D01*
X320658Y403926D01*
X320545Y403916D01*
X320432Y403910D01*
X320319Y403908D01*
X320206Y403910D01*
X320093Y403916D01*
X319980Y403926D01*
X319867Y403940D01*
X319755Y403957D01*
X319644Y403979D01*
X319534Y404004D01*
X319424Y404034D01*
X319316Y404067D01*
X319209Y404104D01*
X319103Y404144D01*
X318999Y404189D01*
X318896Y404237D01*
X318795Y404288D01*
X318696Y404343D01*
X318599Y404401D01*
X318504Y404463D01*
X318411Y404528D01*
X318321Y404596D01*
X318233Y404667D01*
X318147Y404742D01*
X318064Y404819D01*
X317984Y404899D01*
X317907Y404982D01*
X317832Y405068D01*
X317761Y405156D01*
X317693Y405246D01*
X317628Y405339D01*
X317566Y405434D01*
X317508Y405531D01*
X317453Y405630D01*
X317402Y405731D01*
X317354Y405834D01*
X317309Y405938D01*
X317269Y406044D01*
X317232Y406151D01*
X317199Y406259D01*
X317169Y406369D01*
X317144Y406479D01*
X317122Y406590D01*
X317105Y406702D01*
X317091Y406815D01*
X317081Y406928D01*
X317075Y407041D01*
X317073Y407154D01*
X328884Y407154D02*
X328884Y415592D01*
X328884Y407154D02*
X328886Y407041D01*
X328892Y406928D01*
X328902Y406815D01*
X328916Y406702D01*
X328933Y406590D01*
X328955Y406479D01*
X328980Y406369D01*
X329010Y406259D01*
X329043Y406151D01*
X329080Y406044D01*
X329120Y405938D01*
X329165Y405834D01*
X329213Y405731D01*
X329264Y405630D01*
X329319Y405531D01*
X329377Y405434D01*
X329439Y405339D01*
X329504Y405246D01*
X329572Y405156D01*
X329643Y405068D01*
X329718Y404982D01*
X329795Y404899D01*
X329875Y404819D01*
X329958Y404742D01*
X330044Y404667D01*
X330132Y404596D01*
X330222Y404528D01*
X330315Y404463D01*
X330410Y404401D01*
X330507Y404343D01*
X330606Y404288D01*
X330707Y404237D01*
X330810Y404189D01*
X330914Y404144D01*
X331020Y404104D01*
X331127Y404067D01*
X331235Y404034D01*
X331345Y404004D01*
X331455Y403979D01*
X331566Y403957D01*
X331678Y403940D01*
X331791Y403926D01*
X331904Y403916D01*
X332017Y403910D01*
X332130Y403908D01*
X332243Y403910D01*
X332356Y403916D01*
X332469Y403926D01*
X332582Y403940D01*
X332694Y403957D01*
X332805Y403979D01*
X332915Y404004D01*
X333025Y404034D01*
X333133Y404067D01*
X333240Y404104D01*
X333346Y404144D01*
X333450Y404189D01*
X333553Y404237D01*
X333654Y404288D01*
X333753Y404343D01*
X333850Y404401D01*
X333945Y404463D01*
X334038Y404528D01*
X334128Y404596D01*
X334216Y404667D01*
X334302Y404742D01*
X334385Y404819D01*
X334465Y404899D01*
X334542Y404982D01*
X334617Y405068D01*
X334688Y405156D01*
X334756Y405246D01*
X334821Y405339D01*
X334883Y405434D01*
X334941Y405531D01*
X334996Y405630D01*
X335047Y405731D01*
X335095Y405834D01*
X335140Y405938D01*
X335180Y406044D01*
X335217Y406151D01*
X335250Y406259D01*
X335280Y406369D01*
X335305Y406479D01*
X335327Y406590D01*
X335344Y406702D01*
X335358Y406815D01*
X335368Y406928D01*
X335374Y407041D01*
X335376Y407154D01*
X335375Y407154D02*
X335375Y415592D01*
X343178Y415592D02*
X343178Y403908D01*
X339933Y415592D02*
X346424Y415592D01*
X350601Y412996D02*
X353846Y415592D01*
X353846Y403908D01*
X350601Y403908D02*
X357092Y403908D01*
D12*
X194400Y416800D02*
X194400Y334300D01*
X179900Y319800D02*
X166900Y319800D01*
X137900Y319800D02*
X124900Y319800D01*
X110400Y334300D02*
X110400Y416800D01*
X137900Y416800D01*
X166900Y416800D02*
X194400Y416800D01*
X194400Y334300D02*
X179900Y319800D01*
X124900Y319800D02*
X110400Y334300D01*
X166400Y331800D02*
X167284Y332151D01*
X168159Y332524D01*
X169025Y332918D01*
X169881Y333333D01*
X170727Y333769D01*
X171561Y334225D01*
X172385Y334701D01*
X173196Y335198D01*
X173996Y335713D01*
X174782Y336248D01*
X175555Y336803D01*
X176315Y337375D01*
X177060Y337966D01*
X177791Y338575D01*
X178507Y339202D01*
X179207Y339846D01*
X179892Y340507D01*
X180560Y341184D01*
X181211Y341877D01*
X181845Y342586D01*
X182462Y343310D01*
X183062Y344049D01*
X183643Y344802D01*
X184205Y345569D01*
X184749Y346350D01*
X185273Y347143D01*
X185778Y347949D01*
X186264Y348768D01*
X186729Y349597D01*
X187174Y350438D01*
X187598Y351289D01*
X188002Y352151D01*
X188384Y353022D01*
X188745Y353902D01*
X189085Y354791D01*
X189402Y355687D01*
X189698Y356591D01*
X189972Y357502D01*
X190224Y358420D01*
X190453Y359343D01*
X190660Y360272D01*
X190844Y361205D01*
X191005Y362142D01*
X191143Y363083D01*
X191259Y364028D01*
X191351Y364974D01*
X191421Y365923D01*
X191467Y366873D01*
X191490Y367824D01*
X191490Y368776D01*
X191467Y369727D01*
X191421Y370677D01*
X191351Y371626D01*
X191259Y372572D01*
X191143Y373517D01*
X191005Y374458D01*
X190844Y375395D01*
X190660Y376328D01*
X190453Y377257D01*
X190224Y378180D01*
X189972Y379098D01*
X189698Y380009D01*
X189402Y380913D01*
X189085Y381809D01*
X188745Y382698D01*
X188384Y383578D01*
X188002Y384449D01*
X187598Y385311D01*
X187174Y386162D01*
X186729Y387003D01*
X186264Y387832D01*
X185778Y388651D01*
X185273Y389457D01*
X184749Y390250D01*
X184205Y391031D01*
X183643Y391798D01*
X183062Y392551D01*
X182462Y393290D01*
X181845Y394014D01*
X181211Y394723D01*
X180560Y395416D01*
X179892Y396093D01*
X179207Y396754D01*
X178507Y397398D01*
X177791Y398025D01*
X177060Y398634D01*
X176315Y399225D01*
X175555Y399797D01*
X174782Y400352D01*
X173996Y400887D01*
X173196Y401402D01*
X172385Y401899D01*
X171561Y402375D01*
X170727Y402831D01*
X169881Y403267D01*
X169025Y403682D01*
X168159Y404076D01*
X167284Y404449D01*
X166400Y404800D01*
X138400Y404800D02*
X137516Y404449D01*
X136641Y404076D01*
X135775Y403682D01*
X134919Y403267D01*
X134073Y402831D01*
X133239Y402375D01*
X132415Y401899D01*
X131604Y401402D01*
X130804Y400887D01*
X130018Y400352D01*
X129245Y399797D01*
X128485Y399225D01*
X127740Y398634D01*
X127009Y398025D01*
X126293Y397398D01*
X125593Y396754D01*
X124908Y396093D01*
X124240Y395416D01*
X123589Y394723D01*
X122955Y394014D01*
X122338Y393290D01*
X121738Y392551D01*
X121157Y391798D01*
X120595Y391031D01*
X120051Y390250D01*
X119527Y389457D01*
X119022Y388651D01*
X118536Y387832D01*
X118071Y387003D01*
X117626Y386162D01*
X117202Y385311D01*
X116798Y384449D01*
X116416Y383578D01*
X116055Y382698D01*
X115715Y381809D01*
X115398Y380913D01*
X115102Y380009D01*
X114828Y379098D01*
X114576Y378180D01*
X114347Y377257D01*
X114140Y376328D01*
X113956Y375395D01*
X113795Y374458D01*
X113657Y373517D01*
X113541Y372572D01*
X113449Y371626D01*
X113379Y370677D01*
X113333Y369727D01*
X113310Y368776D01*
X113310Y367824D01*
X113333Y366873D01*
X113379Y365923D01*
X113449Y364974D01*
X113541Y364028D01*
X113657Y363083D01*
X113795Y362142D01*
X113956Y361205D01*
X114140Y360272D01*
X114347Y359343D01*
X114576Y358420D01*
X114828Y357502D01*
X115102Y356591D01*
X115398Y355687D01*
X115715Y354791D01*
X116055Y353902D01*
X116416Y353022D01*
X116798Y352151D01*
X117202Y351289D01*
X117626Y350438D01*
X118071Y349597D01*
X118536Y348768D01*
X119022Y347949D01*
X119527Y347143D01*
X120051Y346350D01*
X120595Y345569D01*
X121157Y344802D01*
X121738Y344049D01*
X122338Y343310D01*
X122955Y342586D01*
X123589Y341877D01*
X124240Y341184D01*
X124908Y340507D01*
X125593Y339846D01*
X126293Y339202D01*
X127009Y338575D01*
X127740Y337966D01*
X128485Y337375D01*
X129245Y336803D01*
X130018Y336248D01*
X130804Y335713D01*
X131604Y335198D01*
X132415Y334701D01*
X133239Y334225D01*
X134073Y333769D01*
X134919Y333333D01*
X135775Y332918D01*
X136641Y332524D01*
X137516Y332151D01*
X138400Y331800D01*
D13*
X130701Y422608D02*
X128104Y422608D01*
X128005Y422610D01*
X127905Y422616D01*
X127806Y422625D01*
X127708Y422638D01*
X127610Y422655D01*
X127512Y422676D01*
X127416Y422701D01*
X127321Y422729D01*
X127227Y422761D01*
X127134Y422796D01*
X127042Y422835D01*
X126952Y422878D01*
X126864Y422923D01*
X126777Y422973D01*
X126693Y423025D01*
X126610Y423081D01*
X126530Y423139D01*
X126452Y423201D01*
X126377Y423266D01*
X126304Y423334D01*
X126234Y423404D01*
X126166Y423477D01*
X126101Y423552D01*
X126039Y423630D01*
X125981Y423710D01*
X125925Y423793D01*
X125873Y423877D01*
X125823Y423964D01*
X125778Y424052D01*
X125735Y424142D01*
X125696Y424234D01*
X125661Y424327D01*
X125629Y424421D01*
X125601Y424516D01*
X125576Y424612D01*
X125555Y424710D01*
X125538Y424808D01*
X125525Y424906D01*
X125516Y425005D01*
X125510Y425105D01*
X125508Y425204D01*
X125508Y431696D01*
X125510Y431795D01*
X125516Y431895D01*
X125525Y431994D01*
X125538Y432092D01*
X125555Y432190D01*
X125576Y432288D01*
X125601Y432384D01*
X125629Y432479D01*
X125661Y432573D01*
X125696Y432666D01*
X125735Y432758D01*
X125778Y432848D01*
X125823Y432936D01*
X125873Y433023D01*
X125925Y433107D01*
X125981Y433190D01*
X126039Y433270D01*
X126101Y433348D01*
X126166Y433423D01*
X126234Y433496D01*
X126304Y433566D01*
X126377Y433634D01*
X126452Y433699D01*
X126530Y433761D01*
X126610Y433819D01*
X126693Y433875D01*
X126777Y433927D01*
X126864Y433977D01*
X126952Y434022D01*
X127042Y434065D01*
X127134Y434104D01*
X127226Y434139D01*
X127321Y434171D01*
X127416Y434199D01*
X127512Y434224D01*
X127610Y434245D01*
X127708Y434262D01*
X127806Y434275D01*
X127905Y434284D01*
X128005Y434290D01*
X128104Y434292D01*
X130701Y434292D01*
X135066Y431046D02*
X135066Y425854D01*
X135066Y431046D02*
X135068Y431159D01*
X135074Y431272D01*
X135084Y431385D01*
X135098Y431498D01*
X135115Y431610D01*
X135137Y431721D01*
X135162Y431831D01*
X135192Y431941D01*
X135225Y432049D01*
X135262Y432156D01*
X135302Y432262D01*
X135347Y432366D01*
X135395Y432469D01*
X135446Y432570D01*
X135501Y432669D01*
X135559Y432766D01*
X135621Y432861D01*
X135686Y432954D01*
X135754Y433044D01*
X135825Y433132D01*
X135900Y433218D01*
X135977Y433301D01*
X136057Y433381D01*
X136140Y433458D01*
X136226Y433533D01*
X136314Y433604D01*
X136404Y433672D01*
X136497Y433737D01*
X136592Y433799D01*
X136689Y433857D01*
X136788Y433912D01*
X136889Y433963D01*
X136992Y434011D01*
X137096Y434056D01*
X137202Y434096D01*
X137309Y434133D01*
X137417Y434166D01*
X137527Y434196D01*
X137637Y434221D01*
X137748Y434243D01*
X137860Y434260D01*
X137973Y434274D01*
X138086Y434284D01*
X138199Y434290D01*
X138312Y434292D01*
X138425Y434290D01*
X138538Y434284D01*
X138651Y434274D01*
X138764Y434260D01*
X138876Y434243D01*
X138987Y434221D01*
X139097Y434196D01*
X139207Y434166D01*
X139315Y434133D01*
X139422Y434096D01*
X139528Y434056D01*
X139632Y434011D01*
X139735Y433963D01*
X139836Y433912D01*
X139935Y433857D01*
X140032Y433799D01*
X140127Y433737D01*
X140220Y433672D01*
X140310Y433604D01*
X140398Y433533D01*
X140484Y433458D01*
X140567Y433381D01*
X140647Y433301D01*
X140724Y433218D01*
X140799Y433132D01*
X140870Y433044D01*
X140938Y432954D01*
X141003Y432861D01*
X141065Y432766D01*
X141123Y432669D01*
X141178Y432570D01*
X141229Y432469D01*
X141277Y432366D01*
X141322Y432262D01*
X141362Y432156D01*
X141399Y432049D01*
X141432Y431941D01*
X141462Y431831D01*
X141487Y431721D01*
X141509Y431610D01*
X141526Y431498D01*
X141540Y431385D01*
X141550Y431272D01*
X141556Y431159D01*
X141558Y431046D01*
X141557Y431046D02*
X141557Y425854D01*
X141558Y425854D02*
X141556Y425741D01*
X141550Y425628D01*
X141540Y425515D01*
X141526Y425402D01*
X141509Y425290D01*
X141487Y425179D01*
X141462Y425069D01*
X141432Y424959D01*
X141399Y424851D01*
X141362Y424744D01*
X141322Y424638D01*
X141277Y424534D01*
X141229Y424431D01*
X141178Y424330D01*
X141123Y424231D01*
X141065Y424134D01*
X141003Y424039D01*
X140938Y423946D01*
X140870Y423856D01*
X140799Y423768D01*
X140724Y423682D01*
X140647Y423599D01*
X140567Y423519D01*
X140484Y423442D01*
X140398Y423367D01*
X140310Y423296D01*
X140220Y423228D01*
X140127Y423163D01*
X140032Y423101D01*
X139935Y423043D01*
X139836Y422988D01*
X139735Y422937D01*
X139632Y422889D01*
X139528Y422844D01*
X139422Y422804D01*
X139315Y422767D01*
X139207Y422734D01*
X139097Y422704D01*
X138987Y422679D01*
X138876Y422657D01*
X138764Y422640D01*
X138651Y422626D01*
X138538Y422616D01*
X138425Y422610D01*
X138312Y422608D01*
X138199Y422610D01*
X138086Y422616D01*
X137973Y422626D01*
X137860Y422640D01*
X137748Y422657D01*
X137637Y422679D01*
X137527Y422704D01*
X137417Y422734D01*
X137309Y422767D01*
X137202Y422804D01*
X137096Y422844D01*
X136992Y422889D01*
X136889Y422937D01*
X136788Y422988D01*
X136689Y423043D01*
X136592Y423101D01*
X136497Y423163D01*
X136404Y423228D01*
X136314Y423296D01*
X136226Y423367D01*
X136140Y423442D01*
X136057Y423519D01*
X135977Y423599D01*
X135900Y423682D01*
X135825Y423768D01*
X135754Y423856D01*
X135686Y423946D01*
X135621Y424039D01*
X135559Y424134D01*
X135501Y424231D01*
X135446Y424330D01*
X135395Y424431D01*
X135347Y424534D01*
X135302Y424638D01*
X135262Y424744D01*
X135225Y424851D01*
X135192Y424959D01*
X135162Y425069D01*
X135137Y425179D01*
X135115Y425290D01*
X135098Y425402D01*
X135084Y425515D01*
X135074Y425628D01*
X135068Y425741D01*
X135066Y425854D01*
X146877Y425854D02*
X146877Y434292D01*
X146877Y425854D02*
X146879Y425741D01*
X146885Y425628D01*
X146895Y425515D01*
X146909Y425402D01*
X146926Y425290D01*
X146948Y425179D01*
X146973Y425069D01*
X147003Y424959D01*
X147036Y424851D01*
X147073Y424744D01*
X147113Y424638D01*
X147158Y424534D01*
X147206Y424431D01*
X147257Y424330D01*
X147312Y424231D01*
X147370Y424134D01*
X147432Y424039D01*
X147497Y423946D01*
X147565Y423856D01*
X147636Y423768D01*
X147711Y423682D01*
X147788Y423599D01*
X147868Y423519D01*
X147951Y423442D01*
X148037Y423367D01*
X148125Y423296D01*
X148215Y423228D01*
X148308Y423163D01*
X148403Y423101D01*
X148500Y423043D01*
X148599Y422988D01*
X148700Y422937D01*
X148803Y422889D01*
X148907Y422844D01*
X149013Y422804D01*
X149120Y422767D01*
X149228Y422734D01*
X149338Y422704D01*
X149448Y422679D01*
X149559Y422657D01*
X149671Y422640D01*
X149784Y422626D01*
X149897Y422616D01*
X150010Y422610D01*
X150123Y422608D01*
X150236Y422610D01*
X150349Y422616D01*
X150462Y422626D01*
X150575Y422640D01*
X150687Y422657D01*
X150798Y422679D01*
X150908Y422704D01*
X151018Y422734D01*
X151126Y422767D01*
X151233Y422804D01*
X151339Y422844D01*
X151443Y422889D01*
X151546Y422937D01*
X151647Y422988D01*
X151746Y423043D01*
X151843Y423101D01*
X151938Y423163D01*
X152031Y423228D01*
X152121Y423296D01*
X152209Y423367D01*
X152295Y423442D01*
X152378Y423519D01*
X152458Y423599D01*
X152535Y423682D01*
X152610Y423768D01*
X152681Y423856D01*
X152749Y423946D01*
X152814Y424039D01*
X152876Y424134D01*
X152934Y424231D01*
X152989Y424330D01*
X153040Y424431D01*
X153088Y424534D01*
X153133Y424638D01*
X153173Y424744D01*
X153210Y424851D01*
X153243Y424959D01*
X153273Y425069D01*
X153298Y425179D01*
X153320Y425290D01*
X153337Y425402D01*
X153351Y425515D01*
X153361Y425628D01*
X153367Y425741D01*
X153369Y425854D01*
X153368Y425854D02*
X153368Y434292D01*
X161172Y434292D02*
X161172Y422608D01*
X157926Y434292D02*
X164417Y434292D01*
X168594Y431696D02*
X171840Y434292D01*
X171840Y422608D01*
X175085Y422608D02*
X168594Y422608D01*
X183594Y434292D02*
X183701Y434290D01*
X183807Y434284D01*
X183913Y434274D01*
X184019Y434261D01*
X184125Y434243D01*
X184229Y434222D01*
X184333Y434197D01*
X184436Y434168D01*
X184537Y434136D01*
X184637Y434099D01*
X184736Y434059D01*
X184834Y434016D01*
X184930Y433969D01*
X185024Y433918D01*
X185116Y433864D01*
X185206Y433807D01*
X185294Y433747D01*
X185379Y433683D01*
X185462Y433616D01*
X185543Y433546D01*
X185621Y433474D01*
X185697Y433398D01*
X185769Y433320D01*
X185839Y433239D01*
X185906Y433156D01*
X185970Y433071D01*
X186030Y432983D01*
X186087Y432893D01*
X186141Y432801D01*
X186192Y432707D01*
X186239Y432611D01*
X186282Y432513D01*
X186322Y432414D01*
X186359Y432314D01*
X186391Y432213D01*
X186420Y432110D01*
X186445Y432006D01*
X186466Y431902D01*
X186484Y431796D01*
X186497Y431690D01*
X186507Y431584D01*
X186513Y431478D01*
X186515Y431371D01*
X183594Y434292D02*
X183473Y434290D01*
X183352Y434284D01*
X183232Y434274D01*
X183111Y434261D01*
X182992Y434243D01*
X182872Y434222D01*
X182754Y434197D01*
X182637Y434168D01*
X182520Y434135D01*
X182405Y434099D01*
X182291Y434058D01*
X182178Y434015D01*
X182066Y433967D01*
X181957Y433916D01*
X181849Y433861D01*
X181742Y433803D01*
X181638Y433742D01*
X181536Y433677D01*
X181436Y433609D01*
X181338Y433538D01*
X181242Y433464D01*
X181149Y433387D01*
X181059Y433306D01*
X180971Y433223D01*
X180886Y433137D01*
X180803Y433048D01*
X180724Y432957D01*
X180647Y432863D01*
X180574Y432767D01*
X180504Y432669D01*
X180437Y432568D01*
X180373Y432465D01*
X180313Y432360D01*
X180256Y432253D01*
X180202Y432145D01*
X180152Y432035D01*
X180106Y431923D01*
X180063Y431810D01*
X180024Y431695D01*
X185542Y429099D02*
X185621Y429176D01*
X185697Y429257D01*
X185770Y429340D01*
X185840Y429425D01*
X185907Y429513D01*
X185971Y429603D01*
X186031Y429695D01*
X186088Y429790D01*
X186142Y429886D01*
X186193Y429984D01*
X186240Y430084D01*
X186284Y430186D01*
X186324Y430289D01*
X186360Y430393D01*
X186392Y430499D01*
X186421Y430605D01*
X186446Y430713D01*
X186468Y430821D01*
X186485Y430931D01*
X186499Y431040D01*
X186508Y431150D01*
X186514Y431261D01*
X186516Y431371D01*
X185542Y429099D02*
X180024Y422608D01*
X186515Y422608D01*
D14*
X24300Y466600D02*
X24300Y371600D01*
X24300Y466600D02*
X77300Y466600D01*
X77300Y371600D01*
X24300Y371600D01*
X50800Y371100D02*
X50800Y330200D01*
X50800Y467100D02*
X50800Y508000D01*
D13*
X20273Y369576D02*
X8581Y369576D01*
X8581Y372824D01*
X8583Y372935D01*
X8589Y373046D01*
X8598Y373156D01*
X8611Y373266D01*
X8628Y373376D01*
X8649Y373485D01*
X8673Y373593D01*
X8701Y373700D01*
X8733Y373807D01*
X8769Y373912D01*
X8807Y374016D01*
X8850Y374118D01*
X8896Y374219D01*
X8945Y374318D01*
X8998Y374416D01*
X9054Y374512D01*
X9113Y374605D01*
X9175Y374697D01*
X9241Y374787D01*
X9309Y374874D01*
X9381Y374959D01*
X9455Y375041D01*
X9532Y375121D01*
X9612Y375198D01*
X9694Y375272D01*
X9779Y375344D01*
X9866Y375412D01*
X9956Y375478D01*
X10048Y375540D01*
X10141Y375599D01*
X10237Y375655D01*
X10335Y375708D01*
X10434Y375757D01*
X10535Y375803D01*
X10637Y375846D01*
X10741Y375884D01*
X10846Y375920D01*
X10953Y375952D01*
X11060Y375980D01*
X11168Y376004D01*
X11277Y376025D01*
X11387Y376042D01*
X11497Y376055D01*
X11607Y376064D01*
X11718Y376070D01*
X11829Y376072D01*
X17025Y376072D01*
X17136Y376070D01*
X17247Y376064D01*
X17357Y376055D01*
X17467Y376042D01*
X17577Y376025D01*
X17686Y376004D01*
X17794Y375980D01*
X17901Y375952D01*
X18008Y375920D01*
X18113Y375884D01*
X18217Y375846D01*
X18319Y375803D01*
X18420Y375757D01*
X18519Y375708D01*
X18617Y375655D01*
X18713Y375599D01*
X18806Y375540D01*
X18898Y375478D01*
X18988Y375412D01*
X19075Y375344D01*
X19160Y375272D01*
X19242Y375198D01*
X19322Y375121D01*
X19399Y375041D01*
X19473Y374959D01*
X19545Y374874D01*
X19613Y374787D01*
X19679Y374697D01*
X19741Y374605D01*
X19800Y374512D01*
X19856Y374416D01*
X19909Y374318D01*
X19958Y374219D01*
X20004Y374118D01*
X20047Y374016D01*
X20085Y373912D01*
X20121Y373807D01*
X20153Y373700D01*
X20181Y373593D01*
X20205Y373485D01*
X20226Y373376D01*
X20243Y373266D01*
X20256Y373156D01*
X20265Y373046D01*
X20271Y372935D01*
X20273Y372824D01*
X20273Y369576D01*
X11179Y381395D02*
X8581Y384642D01*
X20273Y384642D01*
X20273Y381395D02*
X20273Y387890D01*
D14*
X316400Y314200D02*
X316400Y219200D01*
X316400Y314200D02*
X369400Y314200D01*
X369400Y219200D01*
X316400Y219200D01*
X342900Y218700D02*
X342900Y177800D01*
X342900Y314700D02*
X342900Y355600D01*
D13*
X312373Y217176D02*
X300681Y217176D01*
X300681Y220424D01*
X300683Y220535D01*
X300689Y220646D01*
X300698Y220756D01*
X300711Y220866D01*
X300728Y220976D01*
X300749Y221085D01*
X300773Y221193D01*
X300801Y221300D01*
X300833Y221407D01*
X300869Y221512D01*
X300907Y221616D01*
X300950Y221718D01*
X300996Y221819D01*
X301045Y221918D01*
X301098Y222016D01*
X301154Y222112D01*
X301213Y222205D01*
X301275Y222297D01*
X301341Y222387D01*
X301409Y222474D01*
X301481Y222559D01*
X301555Y222641D01*
X301632Y222721D01*
X301712Y222798D01*
X301794Y222872D01*
X301879Y222944D01*
X301966Y223012D01*
X302056Y223078D01*
X302148Y223140D01*
X302241Y223199D01*
X302337Y223255D01*
X302435Y223308D01*
X302534Y223357D01*
X302635Y223403D01*
X302737Y223446D01*
X302841Y223484D01*
X302946Y223520D01*
X303053Y223552D01*
X303160Y223580D01*
X303268Y223604D01*
X303377Y223625D01*
X303487Y223642D01*
X303597Y223655D01*
X303707Y223664D01*
X303818Y223670D01*
X303929Y223672D01*
X309125Y223672D01*
X309236Y223670D01*
X309347Y223664D01*
X309457Y223655D01*
X309567Y223642D01*
X309677Y223625D01*
X309786Y223604D01*
X309894Y223580D01*
X310001Y223552D01*
X310108Y223520D01*
X310213Y223484D01*
X310317Y223446D01*
X310419Y223403D01*
X310520Y223357D01*
X310619Y223308D01*
X310717Y223255D01*
X310813Y223199D01*
X310906Y223140D01*
X310998Y223078D01*
X311088Y223012D01*
X311175Y222944D01*
X311260Y222872D01*
X311342Y222798D01*
X311422Y222721D01*
X311499Y222641D01*
X311573Y222559D01*
X311645Y222474D01*
X311713Y222387D01*
X311779Y222297D01*
X311841Y222205D01*
X311900Y222112D01*
X311956Y222016D01*
X312009Y221918D01*
X312058Y221819D01*
X312104Y221718D01*
X312147Y221616D01*
X312185Y221512D01*
X312221Y221407D01*
X312253Y221300D01*
X312281Y221193D01*
X312305Y221085D01*
X312326Y220976D01*
X312343Y220866D01*
X312356Y220756D01*
X312365Y220646D01*
X312371Y220535D01*
X312373Y220424D01*
X312373Y217176D01*
X300681Y232567D02*
X300683Y232674D01*
X300689Y232780D01*
X300699Y232887D01*
X300712Y232993D01*
X300730Y233098D01*
X300751Y233203D01*
X300776Y233306D01*
X300805Y233409D01*
X300838Y233511D01*
X300874Y233611D01*
X300914Y233710D01*
X300957Y233808D01*
X301004Y233904D01*
X301055Y233998D01*
X301109Y234090D01*
X301166Y234180D01*
X301227Y234268D01*
X301290Y234353D01*
X301357Y234437D01*
X301427Y234518D01*
X301500Y234596D01*
X301575Y234671D01*
X301653Y234744D01*
X301734Y234814D01*
X301818Y234881D01*
X301903Y234944D01*
X301991Y235005D01*
X302081Y235062D01*
X302173Y235116D01*
X302267Y235167D01*
X302363Y235214D01*
X302461Y235257D01*
X302560Y235297D01*
X302660Y235333D01*
X302762Y235366D01*
X302865Y235395D01*
X302968Y235420D01*
X303073Y235441D01*
X303178Y235459D01*
X303284Y235472D01*
X303391Y235482D01*
X303497Y235488D01*
X303604Y235490D01*
X300681Y232567D02*
X300683Y232446D01*
X300689Y232325D01*
X300699Y232204D01*
X300712Y232084D01*
X300730Y231964D01*
X300751Y231845D01*
X300776Y231727D01*
X300805Y231609D01*
X300838Y231492D01*
X300875Y231377D01*
X300915Y231263D01*
X300959Y231150D01*
X301006Y231039D01*
X301057Y230929D01*
X301112Y230821D01*
X301170Y230714D01*
X301231Y230610D01*
X301296Y230508D01*
X301364Y230408D01*
X301435Y230310D01*
X301510Y230214D01*
X301587Y230121D01*
X301667Y230030D01*
X301750Y229942D01*
X301837Y229857D01*
X301925Y229775D01*
X302017Y229695D01*
X302110Y229619D01*
X302207Y229545D01*
X302305Y229475D01*
X302406Y229408D01*
X302509Y229344D01*
X302614Y229284D01*
X302721Y229227D01*
X302829Y229173D01*
X302939Y229123D01*
X303051Y229077D01*
X303165Y229034D01*
X303279Y228995D01*
X305878Y234517D02*
X305800Y234595D01*
X305720Y234671D01*
X305637Y234744D01*
X305551Y234814D01*
X305463Y234881D01*
X305373Y234945D01*
X305281Y235006D01*
X305186Y235063D01*
X305090Y235117D01*
X304992Y235168D01*
X304892Y235215D01*
X304790Y235258D01*
X304687Y235298D01*
X304582Y235335D01*
X304477Y235367D01*
X304370Y235396D01*
X304262Y235421D01*
X304154Y235442D01*
X304045Y235460D01*
X303935Y235474D01*
X303825Y235483D01*
X303715Y235489D01*
X303604Y235491D01*
X305877Y234516D02*
X312373Y228995D01*
X312373Y235490D01*
D12*
X117700Y279540D02*
X117700Y177660D01*
D15*
X125222Y194564D03*
X125222Y211582D03*
X125222Y228600D03*
X125222Y245618D03*
X125222Y262636D03*
D13*
X122357Y172212D02*
X122357Y160528D01*
X121059Y160528D02*
X123656Y160528D01*
X123656Y172212D02*
X121059Y172212D01*
X130819Y160528D02*
X133416Y160528D01*
X130819Y160528D02*
X130720Y160530D01*
X130620Y160536D01*
X130521Y160545D01*
X130423Y160558D01*
X130325Y160575D01*
X130227Y160596D01*
X130131Y160621D01*
X130036Y160649D01*
X129942Y160681D01*
X129849Y160716D01*
X129757Y160755D01*
X129667Y160798D01*
X129579Y160843D01*
X129492Y160893D01*
X129408Y160945D01*
X129325Y161001D01*
X129245Y161059D01*
X129167Y161121D01*
X129092Y161186D01*
X129019Y161254D01*
X128949Y161324D01*
X128881Y161397D01*
X128816Y161472D01*
X128754Y161550D01*
X128696Y161630D01*
X128640Y161713D01*
X128588Y161797D01*
X128538Y161884D01*
X128493Y161972D01*
X128450Y162062D01*
X128411Y162154D01*
X128376Y162247D01*
X128344Y162341D01*
X128316Y162436D01*
X128291Y162532D01*
X128270Y162630D01*
X128253Y162728D01*
X128240Y162826D01*
X128231Y162925D01*
X128225Y163025D01*
X128223Y163124D01*
X128223Y169616D01*
X128225Y169715D01*
X128231Y169815D01*
X128240Y169914D01*
X128253Y170012D01*
X128270Y170110D01*
X128291Y170208D01*
X128316Y170304D01*
X128344Y170399D01*
X128376Y170493D01*
X128411Y170586D01*
X128450Y170678D01*
X128493Y170768D01*
X128538Y170856D01*
X128588Y170943D01*
X128640Y171027D01*
X128696Y171110D01*
X128754Y171190D01*
X128816Y171268D01*
X128881Y171343D01*
X128949Y171416D01*
X129019Y171486D01*
X129092Y171554D01*
X129167Y171619D01*
X129245Y171681D01*
X129325Y171739D01*
X129408Y171795D01*
X129492Y171847D01*
X129579Y171897D01*
X129667Y171942D01*
X129757Y171985D01*
X129849Y172024D01*
X129941Y172059D01*
X130036Y172091D01*
X130131Y172119D01*
X130227Y172144D01*
X130325Y172165D01*
X130423Y172182D01*
X130521Y172195D01*
X130620Y172204D01*
X130720Y172210D01*
X130819Y172212D01*
X133416Y172212D01*
X137781Y169616D02*
X141026Y172212D01*
X141026Y160528D01*
X137781Y160528D02*
X144272Y160528D01*
D12*
X288700Y101740D02*
X288700Y-140D01*
D15*
X281178Y84836D03*
X281178Y67818D03*
X281178Y50800D03*
X281178Y33782D03*
X281178Y16764D03*
D13*
X263426Y107188D02*
X263426Y118872D01*
X262128Y107188D02*
X264724Y107188D01*
X264724Y118872D02*
X262128Y118872D01*
X271888Y107188D02*
X274484Y107188D01*
X271888Y107188D02*
X271789Y107190D01*
X271689Y107196D01*
X271590Y107205D01*
X271492Y107218D01*
X271394Y107235D01*
X271296Y107256D01*
X271200Y107281D01*
X271105Y107309D01*
X271011Y107341D01*
X270918Y107376D01*
X270826Y107415D01*
X270736Y107458D01*
X270648Y107503D01*
X270561Y107553D01*
X270477Y107605D01*
X270394Y107661D01*
X270314Y107719D01*
X270236Y107781D01*
X270161Y107846D01*
X270088Y107914D01*
X270018Y107984D01*
X269950Y108057D01*
X269885Y108132D01*
X269823Y108210D01*
X269765Y108290D01*
X269709Y108373D01*
X269657Y108457D01*
X269607Y108544D01*
X269562Y108632D01*
X269519Y108722D01*
X269480Y108814D01*
X269445Y108907D01*
X269413Y109001D01*
X269385Y109096D01*
X269360Y109192D01*
X269339Y109290D01*
X269322Y109388D01*
X269309Y109486D01*
X269300Y109585D01*
X269294Y109685D01*
X269292Y109784D01*
X269291Y109784D02*
X269291Y116276D01*
X269292Y116276D02*
X269294Y116375D01*
X269300Y116475D01*
X269309Y116574D01*
X269322Y116672D01*
X269339Y116770D01*
X269360Y116868D01*
X269385Y116964D01*
X269413Y117059D01*
X269445Y117153D01*
X269480Y117246D01*
X269519Y117338D01*
X269562Y117428D01*
X269607Y117516D01*
X269657Y117603D01*
X269709Y117687D01*
X269765Y117770D01*
X269823Y117850D01*
X269885Y117928D01*
X269950Y118003D01*
X270018Y118076D01*
X270088Y118146D01*
X270161Y118214D01*
X270236Y118279D01*
X270314Y118341D01*
X270394Y118399D01*
X270477Y118455D01*
X270561Y118507D01*
X270648Y118557D01*
X270736Y118602D01*
X270826Y118645D01*
X270918Y118684D01*
X271010Y118719D01*
X271105Y118751D01*
X271200Y118779D01*
X271296Y118804D01*
X271394Y118825D01*
X271492Y118842D01*
X271590Y118855D01*
X271689Y118864D01*
X271789Y118870D01*
X271888Y118872D01*
X274484Y118872D01*
X282420Y118872D02*
X282527Y118870D01*
X282633Y118864D01*
X282739Y118854D01*
X282845Y118841D01*
X282951Y118823D01*
X283055Y118802D01*
X283159Y118777D01*
X283262Y118748D01*
X283363Y118716D01*
X283463Y118679D01*
X283562Y118639D01*
X283660Y118596D01*
X283756Y118549D01*
X283850Y118498D01*
X283942Y118444D01*
X284032Y118387D01*
X284120Y118327D01*
X284205Y118263D01*
X284288Y118196D01*
X284369Y118126D01*
X284447Y118054D01*
X284523Y117978D01*
X284595Y117900D01*
X284665Y117819D01*
X284732Y117736D01*
X284796Y117651D01*
X284856Y117563D01*
X284913Y117473D01*
X284967Y117381D01*
X285018Y117287D01*
X285065Y117191D01*
X285108Y117093D01*
X285148Y116994D01*
X285185Y116894D01*
X285217Y116793D01*
X285246Y116690D01*
X285271Y116586D01*
X285292Y116482D01*
X285310Y116376D01*
X285323Y116270D01*
X285333Y116164D01*
X285339Y116058D01*
X285341Y115951D01*
X282420Y118872D02*
X282299Y118870D01*
X282178Y118864D01*
X282058Y118854D01*
X281937Y118841D01*
X281818Y118823D01*
X281698Y118802D01*
X281580Y118777D01*
X281463Y118748D01*
X281346Y118715D01*
X281231Y118679D01*
X281117Y118638D01*
X281004Y118595D01*
X280892Y118547D01*
X280783Y118496D01*
X280675Y118441D01*
X280568Y118383D01*
X280464Y118322D01*
X280362Y118257D01*
X280262Y118189D01*
X280164Y118118D01*
X280068Y118044D01*
X279975Y117967D01*
X279885Y117886D01*
X279797Y117803D01*
X279712Y117717D01*
X279629Y117628D01*
X279550Y117537D01*
X279473Y117443D01*
X279400Y117347D01*
X279330Y117249D01*
X279263Y117148D01*
X279199Y117045D01*
X279139Y116940D01*
X279082Y116833D01*
X279028Y116725D01*
X278978Y116615D01*
X278932Y116503D01*
X278889Y116390D01*
X278850Y116275D01*
X284367Y113679D02*
X284446Y113756D01*
X284522Y113837D01*
X284595Y113920D01*
X284665Y114005D01*
X284732Y114093D01*
X284796Y114183D01*
X284856Y114275D01*
X284913Y114370D01*
X284967Y114466D01*
X285018Y114564D01*
X285065Y114664D01*
X285109Y114766D01*
X285149Y114869D01*
X285185Y114973D01*
X285217Y115079D01*
X285246Y115185D01*
X285271Y115293D01*
X285293Y115401D01*
X285310Y115511D01*
X285324Y115620D01*
X285333Y115730D01*
X285339Y115841D01*
X285341Y115951D01*
X284367Y113679D02*
X278850Y107188D01*
X285341Y107188D01*
D14*
X149800Y107800D02*
X149800Y120800D01*
X157800Y120800D02*
X157648Y120315D01*
X157509Y119826D01*
X157381Y119334D01*
X157266Y118839D01*
X157162Y118341D01*
X157070Y117841D01*
X156991Y117339D01*
X156923Y116835D01*
X156868Y116330D01*
X156825Y115824D01*
X156795Y115316D01*
X156776Y114808D01*
X156770Y114300D01*
X156776Y113792D01*
X156795Y113284D01*
X156825Y112776D01*
X156868Y112270D01*
X156923Y111765D01*
X156991Y111261D01*
X157070Y110759D01*
X157162Y110259D01*
X157266Y109761D01*
X157381Y109266D01*
X157509Y108774D01*
X157648Y108285D01*
X157800Y107800D01*
X205800Y107800D02*
X205800Y120800D01*
X197800Y120800D02*
X197952Y120315D01*
X198091Y119826D01*
X198219Y119334D01*
X198334Y118839D01*
X198438Y118341D01*
X198530Y117841D01*
X198609Y117339D01*
X198677Y116835D01*
X198732Y116330D01*
X198775Y115824D01*
X198805Y115316D01*
X198824Y114808D01*
X198830Y114300D01*
X198824Y113792D01*
X198805Y113284D01*
X198775Y112776D01*
X198732Y112270D01*
X198677Y111765D01*
X198609Y111261D01*
X198530Y110759D01*
X198438Y110259D01*
X198334Y109761D01*
X198219Y109266D01*
X198091Y108774D01*
X197952Y108285D01*
X197800Y107800D01*
D10*
X143562Y150062D02*
X143562Y166318D01*
X143562Y150062D02*
X150787Y150062D01*
X156558Y162706D02*
X161074Y166318D01*
X161074Y150062D01*
X165589Y150062D02*
X156558Y150062D01*
D14*
X294700Y184000D02*
X294700Y197000D01*
X286700Y197000D02*
X286852Y196515D01*
X286991Y196026D01*
X287119Y195534D01*
X287234Y195039D01*
X287338Y194541D01*
X287430Y194041D01*
X287509Y193539D01*
X287577Y193035D01*
X287632Y192530D01*
X287675Y192024D01*
X287705Y191516D01*
X287724Y191008D01*
X287730Y190500D01*
X287724Y189992D01*
X287705Y189484D01*
X287675Y188976D01*
X287632Y188470D01*
X287577Y187965D01*
X287509Y187461D01*
X287430Y186959D01*
X287338Y186459D01*
X287234Y185961D01*
X287119Y185466D01*
X286991Y184974D01*
X286852Y184485D01*
X286700Y184000D01*
X238700Y184000D02*
X238700Y197000D01*
X246700Y197000D02*
X246548Y196515D01*
X246409Y196026D01*
X246281Y195534D01*
X246166Y195039D01*
X246062Y194541D01*
X245970Y194041D01*
X245891Y193539D01*
X245823Y193035D01*
X245768Y192530D01*
X245725Y192024D01*
X245695Y191516D01*
X245676Y191008D01*
X245670Y190500D01*
X245676Y189992D01*
X245695Y189484D01*
X245725Y188976D01*
X245768Y188470D01*
X245823Y187965D01*
X245891Y187461D01*
X245970Y186959D01*
X246062Y186459D01*
X246166Y185961D01*
X246281Y185466D01*
X246409Y184974D01*
X246548Y184485D01*
X246700Y184000D01*
D10*
X278911Y154738D02*
X278911Y138482D01*
X286136Y138482D01*
X300938Y150674D02*
X300936Y150799D01*
X300930Y150924D01*
X300921Y151049D01*
X300907Y151173D01*
X300890Y151297D01*
X300869Y151421D01*
X300844Y151543D01*
X300815Y151665D01*
X300783Y151786D01*
X300747Y151906D01*
X300707Y152025D01*
X300664Y152142D01*
X300617Y152258D01*
X300566Y152373D01*
X300512Y152485D01*
X300454Y152597D01*
X300394Y152706D01*
X300329Y152813D01*
X300262Y152919D01*
X300191Y153022D01*
X300117Y153123D01*
X300040Y153222D01*
X299960Y153318D01*
X299877Y153412D01*
X299792Y153503D01*
X299703Y153592D01*
X299612Y153677D01*
X299518Y153760D01*
X299422Y153840D01*
X299323Y153917D01*
X299222Y153991D01*
X299119Y154062D01*
X299013Y154129D01*
X298906Y154194D01*
X298797Y154254D01*
X298685Y154312D01*
X298573Y154366D01*
X298458Y154417D01*
X298342Y154464D01*
X298225Y154507D01*
X298106Y154547D01*
X297986Y154583D01*
X297865Y154615D01*
X297743Y154644D01*
X297621Y154669D01*
X297497Y154690D01*
X297373Y154707D01*
X297249Y154721D01*
X297124Y154730D01*
X296999Y154736D01*
X296874Y154738D01*
X296731Y154736D01*
X296589Y154730D01*
X296446Y154720D01*
X296304Y154707D01*
X296163Y154689D01*
X296021Y154668D01*
X295881Y154643D01*
X295741Y154614D01*
X295602Y154581D01*
X295464Y154544D01*
X295327Y154504D01*
X295192Y154460D01*
X295057Y154412D01*
X294924Y154360D01*
X294792Y154305D01*
X294662Y154246D01*
X294534Y154184D01*
X294407Y154118D01*
X294282Y154049D01*
X294159Y153977D01*
X294039Y153901D01*
X293920Y153822D01*
X293803Y153739D01*
X293689Y153654D01*
X293577Y153565D01*
X293468Y153474D01*
X293361Y153379D01*
X293256Y153282D01*
X293155Y153181D01*
X293056Y153078D01*
X292960Y152973D01*
X292867Y152864D01*
X292777Y152753D01*
X292690Y152640D01*
X292606Y152525D01*
X292526Y152407D01*
X292448Y152287D01*
X292374Y152165D01*
X292304Y152041D01*
X292236Y151915D01*
X292173Y151787D01*
X292112Y151658D01*
X292055Y151527D01*
X292002Y151395D01*
X291953Y151261D01*
X291907Y151126D01*
X299583Y147513D02*
X299677Y147605D01*
X299767Y147699D01*
X299855Y147796D01*
X299940Y147896D01*
X300022Y147998D01*
X300101Y148103D01*
X300176Y148210D01*
X300248Y148319D01*
X300317Y148430D01*
X300383Y148544D01*
X300445Y148659D01*
X300504Y148776D01*
X300559Y148895D01*
X300610Y149015D01*
X300658Y149137D01*
X300703Y149260D01*
X300743Y149384D01*
X300780Y149510D01*
X300813Y149637D01*
X300842Y149764D01*
X300868Y149893D01*
X300889Y150022D01*
X300907Y150152D01*
X300920Y150282D01*
X300930Y150412D01*
X300936Y150543D01*
X300938Y150674D01*
X299583Y147513D02*
X291907Y138482D01*
X300938Y138482D01*
X158750Y461010D02*
X95250Y461010D01*
X152400Y529590D02*
X158750Y529590D01*
X92710Y463550D02*
X95250Y461010D01*
X92710Y527050D02*
X95250Y529590D01*
X92710Y527050D02*
X92710Y510540D01*
X92710Y497840D02*
X92710Y463550D01*
X158750Y529590D02*
X161290Y527050D01*
X161290Y463550D02*
X158750Y461010D01*
X161290Y463550D02*
X161290Y497840D01*
X161290Y510540D02*
X161290Y527050D01*
X119380Y495300D02*
X111760Y495300D01*
X111760Y487680D01*
X119380Y487680D01*
X123190Y483870D01*
X123190Y480060D01*
X123190Y472440D02*
X130810Y472440D01*
X130810Y480060D01*
X130810Y483870D02*
X134620Y487680D01*
X142240Y487680D01*
X142240Y495300D01*
X134620Y495300D01*
X130810Y499110D01*
X130810Y502920D01*
X130810Y510540D02*
X123190Y510540D01*
X123190Y502920D01*
X123190Y499110D02*
X119380Y495300D01*
D16*
X103124Y491490D02*
X99314Y491490D01*
X109220Y474980D02*
X106680Y472440D01*
X127000Y468122D02*
X127000Y464312D01*
X146050Y474980D02*
X148590Y472440D01*
X150876Y491490D02*
X154686Y491490D01*
D10*
X130810Y480060D02*
X123190Y480060D01*
X123190Y472440D01*
X130810Y480060D02*
X130810Y483870D01*
X130810Y502920D02*
X123190Y502920D01*
X123190Y499110D01*
X130810Y502920D02*
X130810Y510540D01*
X152400Y525780D02*
X152400Y529590D01*
X101600Y529590D02*
X101600Y525780D01*
X133350Y529590D02*
X152400Y529590D01*
X120650Y529590D02*
X101600Y529590D01*
X95250Y529590D01*
X137160Y525780D02*
X152400Y525780D01*
X116840Y525780D02*
X101600Y525780D01*
D11*
X99836Y513969D02*
X97437Y513969D01*
X99836Y513969D02*
X99933Y513971D01*
X100029Y513977D01*
X100125Y513986D01*
X100221Y514000D01*
X100316Y514017D01*
X100410Y514039D01*
X100503Y514064D01*
X100596Y514092D01*
X100687Y514125D01*
X100776Y514161D01*
X100864Y514201D01*
X100951Y514244D01*
X101036Y514290D01*
X101118Y514340D01*
X101199Y514394D01*
X101277Y514450D01*
X101353Y514510D01*
X101427Y514572D01*
X101498Y514638D01*
X101566Y514706D01*
X101632Y514777D01*
X101694Y514851D01*
X101754Y514927D01*
X101810Y515005D01*
X101864Y515086D01*
X101914Y515169D01*
X101960Y515253D01*
X102003Y515340D01*
X102043Y515428D01*
X102079Y515517D01*
X102112Y515608D01*
X102140Y515701D01*
X102165Y515794D01*
X102187Y515888D01*
X102204Y515983D01*
X102218Y516079D01*
X102227Y516175D01*
X102233Y516271D01*
X102235Y516368D01*
X102233Y516465D01*
X102227Y516561D01*
X102218Y516657D01*
X102204Y516753D01*
X102187Y516848D01*
X102165Y516942D01*
X102140Y517035D01*
X102112Y517128D01*
X102079Y517219D01*
X102043Y517308D01*
X102003Y517396D01*
X101960Y517483D01*
X101914Y517568D01*
X101864Y517650D01*
X101810Y517731D01*
X101754Y517809D01*
X101694Y517885D01*
X101632Y517959D01*
X101566Y518030D01*
X101498Y518098D01*
X101427Y518164D01*
X101353Y518226D01*
X101277Y518286D01*
X101199Y518342D01*
X101118Y518396D01*
X101036Y518446D01*
X100951Y518492D01*
X100864Y518535D01*
X100776Y518575D01*
X100687Y518611D01*
X100596Y518644D01*
X100503Y518672D01*
X100410Y518697D01*
X100316Y518719D01*
X100221Y518736D01*
X100125Y518750D01*
X100029Y518759D01*
X99933Y518765D01*
X99836Y518767D01*
X100316Y522605D02*
X97437Y522605D01*
X100316Y522605D02*
X100402Y522603D01*
X100488Y522597D01*
X100574Y522588D01*
X100659Y522574D01*
X100743Y522557D01*
X100827Y522536D01*
X100909Y522511D01*
X100990Y522483D01*
X101070Y522451D01*
X101149Y522415D01*
X101225Y522376D01*
X101300Y522333D01*
X101373Y522288D01*
X101444Y522239D01*
X101512Y522186D01*
X101579Y522131D01*
X101642Y522073D01*
X101703Y522012D01*
X101761Y521949D01*
X101816Y521882D01*
X101869Y521814D01*
X101918Y521743D01*
X101963Y521670D01*
X102006Y521595D01*
X102045Y521519D01*
X102081Y521440D01*
X102113Y521360D01*
X102141Y521279D01*
X102166Y521197D01*
X102187Y521113D01*
X102204Y521029D01*
X102218Y520944D01*
X102227Y520858D01*
X102233Y520772D01*
X102235Y520686D01*
X102233Y520600D01*
X102227Y520514D01*
X102218Y520428D01*
X102204Y520343D01*
X102187Y520259D01*
X102166Y520175D01*
X102141Y520093D01*
X102113Y520012D01*
X102081Y519932D01*
X102045Y519853D01*
X102006Y519777D01*
X101963Y519702D01*
X101918Y519629D01*
X101869Y519558D01*
X101816Y519490D01*
X101761Y519423D01*
X101703Y519360D01*
X101642Y519299D01*
X101579Y519241D01*
X101512Y519186D01*
X101444Y519133D01*
X101373Y519084D01*
X101300Y519039D01*
X101225Y518996D01*
X101149Y518957D01*
X101070Y518921D01*
X100990Y518889D01*
X100909Y518861D01*
X100827Y518836D01*
X100743Y518815D01*
X100659Y518798D01*
X100574Y518784D01*
X100488Y518775D01*
X100402Y518769D01*
X100316Y518767D01*
X98397Y518767D01*
X150777Y520686D02*
X153176Y522605D01*
X153176Y513969D01*
X150777Y513969D02*
X155575Y513969D01*
X140418Y456565D02*
X140418Y445135D01*
X140418Y456565D02*
X143593Y456565D01*
X143704Y456563D01*
X143814Y456557D01*
X143925Y456548D01*
X144035Y456534D01*
X144144Y456517D01*
X144253Y456496D01*
X144361Y456471D01*
X144468Y456442D01*
X144574Y456410D01*
X144679Y456374D01*
X144782Y456334D01*
X144884Y456291D01*
X144985Y456244D01*
X145084Y456193D01*
X145181Y456140D01*
X145275Y456083D01*
X145368Y456022D01*
X145459Y455959D01*
X145548Y455892D01*
X145634Y455822D01*
X145717Y455749D01*
X145799Y455674D01*
X145877Y455596D01*
X145952Y455514D01*
X146025Y455431D01*
X146095Y455345D01*
X146162Y455256D01*
X146225Y455165D01*
X146286Y455072D01*
X146343Y454977D01*
X146396Y454881D01*
X146447Y454782D01*
X146494Y454681D01*
X146537Y454579D01*
X146577Y454476D01*
X146613Y454371D01*
X146645Y454265D01*
X146674Y454158D01*
X146699Y454050D01*
X146720Y453941D01*
X146737Y453832D01*
X146751Y453722D01*
X146760Y453611D01*
X146766Y453501D01*
X146768Y453390D01*
X146766Y453279D01*
X146760Y453169D01*
X146751Y453058D01*
X146737Y452948D01*
X146720Y452839D01*
X146699Y452730D01*
X146674Y452622D01*
X146645Y452515D01*
X146613Y452409D01*
X146577Y452304D01*
X146537Y452201D01*
X146494Y452099D01*
X146447Y451998D01*
X146396Y451899D01*
X146343Y451802D01*
X146286Y451708D01*
X146225Y451615D01*
X146162Y451524D01*
X146095Y451435D01*
X146025Y451349D01*
X145952Y451266D01*
X145877Y451184D01*
X145799Y451106D01*
X145717Y451031D01*
X145634Y450958D01*
X145548Y450888D01*
X145459Y450821D01*
X145368Y450758D01*
X145275Y450697D01*
X145180Y450640D01*
X145084Y450587D01*
X144985Y450536D01*
X144884Y450489D01*
X144782Y450446D01*
X144679Y450406D01*
X144574Y450370D01*
X144468Y450338D01*
X144361Y450309D01*
X144253Y450284D01*
X144144Y450263D01*
X144035Y450246D01*
X143925Y450232D01*
X143814Y450223D01*
X143704Y450217D01*
X143593Y450215D01*
X140418Y450215D01*
X144228Y450215D02*
X146768Y445135D01*
X151765Y454025D02*
X154940Y456565D01*
X154940Y445135D01*
X151765Y445135D02*
X158115Y445135D01*
D10*
X209550Y529590D02*
X273050Y529590D01*
X215900Y461010D02*
X209550Y461010D01*
X275590Y527050D02*
X273050Y529590D01*
X275590Y463550D02*
X273050Y461010D01*
X275590Y463550D02*
X275590Y480060D01*
X275590Y492760D02*
X275590Y527050D01*
X209550Y461010D02*
X207010Y463550D01*
X207010Y527050D02*
X209550Y529590D01*
X207010Y527050D02*
X207010Y492760D01*
X207010Y480060D02*
X207010Y463550D01*
X248920Y495300D02*
X256540Y495300D01*
X256540Y502920D01*
X248920Y502920D01*
X245110Y506730D01*
X245110Y510540D01*
X245110Y518160D02*
X237490Y518160D01*
X237490Y510540D01*
X237490Y506730D02*
X233680Y502920D01*
X226060Y502920D01*
X226060Y495300D01*
X233680Y495300D01*
X237490Y491490D01*
X237490Y487680D01*
X237490Y480060D02*
X245110Y480060D01*
X245110Y487680D01*
X245110Y491490D02*
X248920Y495300D01*
D16*
X265176Y499110D02*
X268986Y499110D01*
X259080Y515620D02*
X261620Y518160D01*
X241300Y522478D02*
X241300Y526288D01*
X222250Y515620D02*
X219710Y518160D01*
X217424Y499110D02*
X213614Y499110D01*
D10*
X237490Y510540D02*
X245110Y510540D01*
X245110Y518160D01*
X237490Y510540D02*
X237490Y506730D01*
X237490Y487680D02*
X245110Y487680D01*
X245110Y491490D01*
X237490Y487680D02*
X237490Y480060D01*
X215900Y464820D02*
X215900Y461010D01*
X266700Y461010D02*
X266700Y464820D01*
X234950Y461010D02*
X215900Y461010D01*
X247650Y461010D02*
X266700Y461010D01*
X273050Y461010D01*
X231140Y464820D02*
X215900Y464820D01*
X251460Y464820D02*
X266700Y464820D01*
D11*
X266065Y467995D02*
X268464Y467995D01*
X268561Y467997D01*
X268657Y468003D01*
X268753Y468012D01*
X268849Y468026D01*
X268944Y468043D01*
X269038Y468065D01*
X269131Y468090D01*
X269224Y468118D01*
X269315Y468151D01*
X269404Y468187D01*
X269492Y468227D01*
X269579Y468270D01*
X269664Y468316D01*
X269746Y468366D01*
X269827Y468420D01*
X269905Y468476D01*
X269981Y468536D01*
X270055Y468598D01*
X270126Y468664D01*
X270194Y468732D01*
X270260Y468803D01*
X270322Y468877D01*
X270382Y468953D01*
X270438Y469031D01*
X270492Y469112D01*
X270542Y469195D01*
X270588Y469279D01*
X270631Y469366D01*
X270671Y469454D01*
X270707Y469543D01*
X270740Y469634D01*
X270768Y469727D01*
X270793Y469820D01*
X270815Y469914D01*
X270832Y470009D01*
X270846Y470105D01*
X270855Y470201D01*
X270861Y470297D01*
X270863Y470394D01*
X270861Y470491D01*
X270855Y470587D01*
X270846Y470683D01*
X270832Y470779D01*
X270815Y470874D01*
X270793Y470968D01*
X270768Y471061D01*
X270740Y471154D01*
X270707Y471245D01*
X270671Y471334D01*
X270631Y471422D01*
X270588Y471509D01*
X270542Y471594D01*
X270492Y471676D01*
X270438Y471757D01*
X270382Y471835D01*
X270322Y471911D01*
X270260Y471985D01*
X270194Y472056D01*
X270126Y472124D01*
X270055Y472190D01*
X269981Y472252D01*
X269905Y472312D01*
X269827Y472368D01*
X269746Y472422D01*
X269664Y472472D01*
X269579Y472518D01*
X269492Y472561D01*
X269404Y472601D01*
X269315Y472637D01*
X269224Y472670D01*
X269131Y472698D01*
X269038Y472723D01*
X268944Y472745D01*
X268849Y472762D01*
X268753Y472776D01*
X268657Y472785D01*
X268561Y472791D01*
X268464Y472793D01*
X268944Y476631D02*
X266065Y476631D01*
X268944Y476631D02*
X269030Y476629D01*
X269116Y476623D01*
X269202Y476614D01*
X269287Y476600D01*
X269371Y476583D01*
X269455Y476562D01*
X269537Y476537D01*
X269618Y476509D01*
X269698Y476477D01*
X269777Y476441D01*
X269853Y476402D01*
X269928Y476359D01*
X270001Y476314D01*
X270072Y476265D01*
X270140Y476212D01*
X270207Y476157D01*
X270270Y476099D01*
X270331Y476038D01*
X270389Y475975D01*
X270444Y475908D01*
X270497Y475840D01*
X270546Y475769D01*
X270591Y475696D01*
X270634Y475621D01*
X270673Y475545D01*
X270709Y475466D01*
X270741Y475386D01*
X270769Y475305D01*
X270794Y475223D01*
X270815Y475139D01*
X270832Y475055D01*
X270846Y474970D01*
X270855Y474884D01*
X270861Y474798D01*
X270863Y474712D01*
X270861Y474626D01*
X270855Y474540D01*
X270846Y474454D01*
X270832Y474369D01*
X270815Y474285D01*
X270794Y474201D01*
X270769Y474119D01*
X270741Y474038D01*
X270709Y473958D01*
X270673Y473879D01*
X270634Y473803D01*
X270591Y473728D01*
X270546Y473655D01*
X270497Y473584D01*
X270444Y473516D01*
X270389Y473449D01*
X270331Y473386D01*
X270270Y473325D01*
X270207Y473267D01*
X270140Y473212D01*
X270072Y473159D01*
X270001Y473110D01*
X269928Y473065D01*
X269853Y473022D01*
X269777Y472983D01*
X269698Y472947D01*
X269618Y472915D01*
X269537Y472887D01*
X269455Y472862D01*
X269371Y472841D01*
X269287Y472824D01*
X269202Y472810D01*
X269116Y472801D01*
X269030Y472795D01*
X268944Y472793D01*
X267025Y472793D01*
X215124Y476631D02*
X212725Y474712D01*
X215124Y476631D02*
X215124Y467995D01*
X212725Y467995D02*
X217523Y467995D01*
X210185Y534035D02*
X210185Y545465D01*
X213360Y545465D01*
X213471Y545463D01*
X213581Y545457D01*
X213692Y545448D01*
X213802Y545434D01*
X213911Y545417D01*
X214020Y545396D01*
X214128Y545371D01*
X214235Y545342D01*
X214341Y545310D01*
X214446Y545274D01*
X214549Y545234D01*
X214651Y545191D01*
X214752Y545144D01*
X214851Y545093D01*
X214948Y545040D01*
X215042Y544983D01*
X215135Y544922D01*
X215226Y544859D01*
X215315Y544792D01*
X215401Y544722D01*
X215484Y544649D01*
X215566Y544574D01*
X215644Y544496D01*
X215719Y544414D01*
X215792Y544331D01*
X215862Y544245D01*
X215929Y544156D01*
X215992Y544065D01*
X216053Y543972D01*
X216110Y543877D01*
X216163Y543781D01*
X216214Y543682D01*
X216261Y543581D01*
X216304Y543479D01*
X216344Y543376D01*
X216380Y543271D01*
X216412Y543165D01*
X216441Y543058D01*
X216466Y542950D01*
X216487Y542841D01*
X216504Y542732D01*
X216518Y542622D01*
X216527Y542511D01*
X216533Y542401D01*
X216535Y542290D01*
X216533Y542179D01*
X216527Y542069D01*
X216518Y541958D01*
X216504Y541848D01*
X216487Y541739D01*
X216466Y541630D01*
X216441Y541522D01*
X216412Y541415D01*
X216380Y541309D01*
X216344Y541204D01*
X216304Y541101D01*
X216261Y540999D01*
X216214Y540898D01*
X216163Y540799D01*
X216110Y540703D01*
X216053Y540608D01*
X215992Y540515D01*
X215929Y540424D01*
X215862Y540335D01*
X215792Y540249D01*
X215719Y540166D01*
X215644Y540084D01*
X215566Y540006D01*
X215484Y539931D01*
X215401Y539858D01*
X215315Y539788D01*
X215226Y539721D01*
X215135Y539658D01*
X215042Y539597D01*
X214947Y539540D01*
X214851Y539487D01*
X214752Y539436D01*
X214651Y539389D01*
X214549Y539346D01*
X214446Y539306D01*
X214341Y539270D01*
X214235Y539238D01*
X214128Y539209D01*
X214020Y539184D01*
X213911Y539163D01*
X213802Y539146D01*
X213692Y539132D01*
X213581Y539123D01*
X213471Y539117D01*
X213360Y539115D01*
X210185Y539115D01*
X213995Y539115D02*
X216535Y534035D01*
X227883Y542608D02*
X227881Y542712D01*
X227875Y542817D01*
X227866Y542921D01*
X227853Y543024D01*
X227835Y543127D01*
X227815Y543229D01*
X227790Y543331D01*
X227762Y543431D01*
X227730Y543531D01*
X227694Y543629D01*
X227655Y543726D01*
X227613Y543821D01*
X227567Y543915D01*
X227517Y544007D01*
X227465Y544097D01*
X227409Y544185D01*
X227349Y544271D01*
X227287Y544355D01*
X227222Y544436D01*
X227154Y544515D01*
X227082Y544592D01*
X227009Y544665D01*
X226932Y544737D01*
X226853Y544805D01*
X226772Y544870D01*
X226688Y544932D01*
X226602Y544992D01*
X226514Y545048D01*
X226424Y545100D01*
X226332Y545150D01*
X226238Y545196D01*
X226143Y545238D01*
X226046Y545277D01*
X225948Y545313D01*
X225848Y545345D01*
X225748Y545373D01*
X225646Y545398D01*
X225544Y545418D01*
X225441Y545436D01*
X225338Y545449D01*
X225234Y545458D01*
X225129Y545464D01*
X225025Y545466D01*
X225025Y545465D02*
X224907Y545463D01*
X224788Y545457D01*
X224670Y545448D01*
X224553Y545435D01*
X224436Y545417D01*
X224319Y545397D01*
X224203Y545372D01*
X224088Y545344D01*
X223975Y545311D01*
X223862Y545276D01*
X223750Y545236D01*
X223640Y545194D01*
X223531Y545147D01*
X223423Y545097D01*
X223318Y545044D01*
X223214Y544987D01*
X223112Y544927D01*
X223012Y544864D01*
X222914Y544797D01*
X222818Y544728D01*
X222725Y544655D01*
X222634Y544579D01*
X222545Y544501D01*
X222459Y544419D01*
X222376Y544335D01*
X222295Y544249D01*
X222218Y544159D01*
X222143Y544068D01*
X222071Y543974D01*
X222002Y543877D01*
X221937Y543779D01*
X221874Y543678D01*
X221815Y543575D01*
X221759Y543471D01*
X221707Y543365D01*
X221658Y543257D01*
X221613Y543148D01*
X221571Y543037D01*
X221533Y542925D01*
X226930Y540386D02*
X227006Y540461D01*
X227081Y540540D01*
X227152Y540621D01*
X227221Y540705D01*
X227286Y540791D01*
X227348Y540879D01*
X227408Y540969D01*
X227464Y541061D01*
X227517Y541156D01*
X227566Y541252D01*
X227612Y541350D01*
X227655Y541449D01*
X227694Y541550D01*
X227729Y541652D01*
X227761Y541755D01*
X227789Y541859D01*
X227814Y541964D01*
X227835Y542071D01*
X227852Y542177D01*
X227865Y542284D01*
X227874Y542392D01*
X227880Y542500D01*
X227882Y542608D01*
X226930Y540385D02*
X221532Y534035D01*
X227882Y534035D01*
M02*
