G04 EAGLE Gerber RS-274X export*
G75*
%MOMM*%
%FSLAX34Y34*%
%LPD*%
%INSolderpaste Top*%
%IPPOS*%
%AMOC8*
5,1,8,0,0,1.08239X$1,22.5*%
G01*
%ADD10R,3.500000X2.500000*%
%ADD11R,2.500000X3.500000*%
%ADD12R,10.410000X10.800000*%
%ADD13R,2.159000X1.066800*%
%ADD14C,0.550000*%


D10*
X234200Y368300D03*
X299200Y368300D03*
X31000Y114300D03*
X96000Y114300D03*
D11*
X330200Y502400D03*
X330200Y437400D03*
X152400Y335800D03*
X152400Y400800D03*
D12*
X63500Y228600D03*
D13*
X146812Y194564D03*
X146812Y211582D03*
X146812Y228600D03*
X146812Y245618D03*
X146812Y262636D03*
D12*
X342900Y50800D03*
D13*
X259588Y84836D03*
X259588Y67818D03*
X259588Y50800D03*
X259588Y33782D03*
X259588Y16764D03*
D14*
X206550Y126550D02*
X149050Y126550D01*
X149050Y143050D01*
X206550Y143050D01*
X206550Y126550D01*
X206550Y131775D02*
X149050Y131775D01*
X149050Y137000D02*
X206550Y137000D01*
X206550Y142225D02*
X149050Y142225D01*
X149050Y102050D02*
X206550Y102050D01*
X206550Y85550D01*
X149050Y85550D01*
X149050Y102050D01*
X149050Y90775D02*
X206550Y90775D01*
X206550Y96000D02*
X149050Y96000D01*
X149050Y101225D02*
X206550Y101225D01*
X237950Y178250D02*
X295450Y178250D01*
X295450Y161750D01*
X237950Y161750D01*
X237950Y178250D01*
X237950Y166975D02*
X295450Y166975D01*
X295450Y172200D02*
X237950Y172200D01*
X237950Y177425D02*
X295450Y177425D01*
X295450Y202750D02*
X237950Y202750D01*
X237950Y219250D01*
X295450Y219250D01*
X295450Y202750D01*
X295450Y207975D02*
X237950Y207975D01*
X237950Y213200D02*
X295450Y213200D01*
X295450Y218425D02*
X237950Y218425D01*
M02*
